<mxfile host="app.diagrams.net" modified="2024-01-11T15:38:20.019Z" agent="Mozilla/5.0 (Windows NT 10.0; Win64; x64) AppleWebKit/537.36 (KHTML, like Gecko) Chrome/119.0.0.0 Safari/537.36 OPR/105.0.0.0" etag="6CLCAGqlDV0yKnY-vxyj" version="22.1.18" type="google">
  <diagram name="Page-1" id="2YBvvXClWsGukQMizWep">
    <mxGraphModel grid="1" page="1" gridSize="10" guides="1" tooltips="1" connect="1" arrows="1" fold="1" pageScale="1" pageWidth="850" pageHeight="1100" math="0" shadow="0">
      <root>
        <mxCell id="0" />
        <mxCell id="1" parent="0" />
        <mxCell id="dzN_O0dOmK8x91sWcJcT-4" style="edgeStyle=orthogonalEdgeStyle;rounded=0;orthogonalLoop=1;jettySize=auto;html=1;endArrow=none;endFill=0;dashed=1;" edge="1" parent="1">
          <mxGeometry relative="1" as="geometry">
            <mxPoint x="945" y="540" as="targetPoint" />
            <mxPoint x="944.61347826087" y="90" as="sourcePoint" />
          </mxGeometry>
        </mxCell>
        <mxCell id="dzN_O0dOmK8x91sWcJcT-1" value="User" style="shape=umlActor;verticalLabelPosition=bottom;verticalAlign=top;html=1;outlineConnect=0;" vertex="1" parent="1">
          <mxGeometry x="930" y="10" width="30" height="60" as="geometry" />
        </mxCell>
        <mxCell id="dzN_O0dOmK8x91sWcJcT-2" value="Application" style="rounded=0;whiteSpace=wrap;html=1;" vertex="1" parent="1">
          <mxGeometry x="1200" y="20" width="120" height="60" as="geometry" />
        </mxCell>
        <mxCell id="dzN_O0dOmK8x91sWcJcT-3" value="Base de donnÃ©es" style="rounded=0;whiteSpace=wrap;html=1;" vertex="1" parent="1">
          <mxGeometry x="1520" y="20" width="120" height="60" as="geometry" />
        </mxCell>
        <mxCell id="dzN_O0dOmK8x91sWcJcT-5" style="edgeStyle=orthogonalEdgeStyle;rounded=0;orthogonalLoop=1;jettySize=auto;html=1;endArrow=none;endFill=0;dashed=1;" edge="1" parent="1">
          <mxGeometry relative="1" as="geometry">
            <mxPoint x="1260" y="530" as="targetPoint" />
            <mxPoint x="1259.6134782608701" y="80" as="sourcePoint" />
          </mxGeometry>
        </mxCell>
        <mxCell id="dzN_O0dOmK8x91sWcJcT-6" style="edgeStyle=orthogonalEdgeStyle;rounded=0;orthogonalLoop=1;jettySize=auto;html=1;endArrow=none;endFill=0;dashed=1;" edge="1" parent="1">
          <mxGeometry relative="1" as="geometry">
            <mxPoint x="1580" y="540" as="targetPoint" />
            <mxPoint x="1579.61347826087" y="80" as="sourcePoint" />
          </mxGeometry>
        </mxCell>
        <mxCell id="dzN_O0dOmK8x91sWcJcT-7" value="" style="endArrow=classic;html=1;rounded=0;" edge="1" parent="1">
          <mxGeometry width="50" height="50" relative="1" as="geometry">
            <mxPoint x="940" y="160" as="sourcePoint" />
            <mxPoint x="1260" y="160" as="targetPoint" />
          </mxGeometry>
        </mxCell>
        <mxCell id="dzN_O0dOmK8x91sWcJcT-9" value="Appuie sur ce connecter" style="edgeLabel;html=1;align=center;verticalAlign=middle;resizable=0;points=[];" connectable="0" vertex="1" parent="dzN_O0dOmK8x91sWcJcT-7">
          <mxGeometry x="-0.0571" y="-2" relative="1" as="geometry">
            <mxPoint as="offset" />
          </mxGeometry>
        </mxCell>
        <mxCell id="dzN_O0dOmK8x91sWcJcT-13" value="" style="html=1;points=[[0,0,0,0,5],[0,1,0,0,-5],[1,0,0,0,5],[1,1,0,0,-5]];perimeter=orthogonalPerimeter;outlineConnect=0;targetShapes=umlLifeline;portConstraint=eastwest;newEdgeStyle={&quot;curved&quot;:0,&quot;rounded&quot;:0};" vertex="1" parent="1">
          <mxGeometry x="1258" y="150.04" width="10" height="40" as="geometry" />
        </mxCell>
        <mxCell id="dzN_O0dOmK8x91sWcJcT-14" value="self call" style="html=1;align=left;spacingLeft=2;endArrow=block;rounded=0;edgeStyle=orthogonalEdgeStyle;curved=0;rounded=0;" edge="1" parent="1">
          <mxGeometry x="-0.0104" relative="1" as="geometry">
            <mxPoint x="1268" y="155.04" as="sourcePoint" />
            <Array as="points">
              <mxPoint x="1295" y="155" />
              <mxPoint x="1295" y="185" />
            </Array>
            <mxPoint x="1273" y="185.04347826086962" as="targetPoint" />
            <mxPoint as="offset" />
          </mxGeometry>
        </mxCell>
        <mxCell id="dzN_O0dOmK8x91sWcJcT-16" value="" style="endArrow=none;html=1;rounded=0;endFill=0;startArrow=block;startFill=1;" edge="1" parent="1">
          <mxGeometry width="50" height="50" relative="1" as="geometry">
            <mxPoint x="938" y="180" as="sourcePoint" />
            <mxPoint x="1258" y="180" as="targetPoint" />
          </mxGeometry>
        </mxCell>
        <mxCell id="dzN_O0dOmK8x91sWcJcT-17" value="Affiche la page de connexion" style="edgeLabel;html=1;align=center;verticalAlign=middle;resizable=0;points=[];" connectable="0" vertex="1" parent="dzN_O0dOmK8x91sWcJcT-16">
          <mxGeometry x="-0.0571" y="-2" relative="1" as="geometry">
            <mxPoint as="offset" />
          </mxGeometry>
        </mxCell>
        <mxCell id="dzN_O0dOmK8x91sWcJcT-18" value="" style="endArrow=classic;html=1;rounded=0;" edge="1" parent="1">
          <mxGeometry width="50" height="50" relative="1" as="geometry">
            <mxPoint x="948" y="230" as="sourcePoint" />
            <mxPoint x="1268" y="230" as="targetPoint" />
          </mxGeometry>
        </mxCell>
        <mxCell id="dzN_O0dOmK8x91sWcJcT-19" value="Rentre les informations de connexion" style="edgeLabel;html=1;align=center;verticalAlign=middle;resizable=0;points=[];" connectable="0" vertex="1" parent="dzN_O0dOmK8x91sWcJcT-18">
          <mxGeometry x="-0.0571" y="-2" relative="1" as="geometry">
            <mxPoint as="offset" />
          </mxGeometry>
        </mxCell>
        <mxCell id="dzN_O0dOmK8x91sWcJcT-20" value="" style="endArrow=classic;html=1;rounded=0;" edge="1" parent="1">
          <mxGeometry width="50" height="50" relative="1" as="geometry">
            <mxPoint x="948" y="250" as="sourcePoint" />
            <mxPoint x="1268" y="250" as="targetPoint" />
          </mxGeometry>
        </mxCell>
        <mxCell id="dzN_O0dOmK8x91sWcJcT-21" value="Envoie la requete de connexion" style="edgeLabel;html=1;align=center;verticalAlign=middle;resizable=0;points=[];" connectable="0" vertex="1" parent="dzN_O0dOmK8x91sWcJcT-20">
          <mxGeometry x="-0.0571" y="-2" relative="1" as="geometry">
            <mxPoint as="offset" />
          </mxGeometry>
        </mxCell>
        <mxCell id="dzN_O0dOmK8x91sWcJcT-23" value="" style="endArrow=classic;html=1;rounded=0;" edge="1" parent="1">
          <mxGeometry width="50" height="50" relative="1" as="geometry">
            <mxPoint x="1258" y="270" as="sourcePoint" />
            <mxPoint x="1578" y="270" as="targetPoint" />
          </mxGeometry>
        </mxCell>
        <mxCell id="dzN_O0dOmK8x91sWcJcT-24" value="Envoie la requete de connexion a la bdd" style="edgeLabel;html=1;align=center;verticalAlign=middle;resizable=0;points=[];" connectable="0" vertex="1" parent="dzN_O0dOmK8x91sWcJcT-23">
          <mxGeometry x="-0.0571" y="-2" relative="1" as="geometry">
            <mxPoint as="offset" />
          </mxGeometry>
        </mxCell>
        <mxCell id="dzN_O0dOmK8x91sWcJcT-25" value="" style="html=1;points=[[0,0,0,0,5],[0,1,0,0,-5],[1,0,0,0,5],[1,1,0,0,-5]];perimeter=orthogonalPerimeter;outlineConnect=0;targetShapes=umlLifeline;portConstraint=eastwest;newEdgeStyle={&quot;curved&quot;:0,&quot;rounded&quot;:0};" vertex="1" parent="1">
          <mxGeometry x="1580" y="270.04" width="10" height="40" as="geometry" />
        </mxCell>
        <mxCell id="dzN_O0dOmK8x91sWcJcT-26" value="Verifie&amp;nbsp;" style="html=1;align=left;spacingLeft=2;endArrow=block;rounded=0;edgeStyle=orthogonalEdgeStyle;curved=0;rounded=0;" edge="1" parent="1">
          <mxGeometry x="0.0036" relative="1" as="geometry">
            <mxPoint x="1590" y="275.12" as="sourcePoint" />
            <Array as="points">
              <mxPoint x="1620" y="275.08" />
              <mxPoint x="1620" y="305.08" />
            </Array>
            <mxPoint x="1595" y="305.0365217391306" as="targetPoint" />
            <mxPoint as="offset" />
          </mxGeometry>
        </mxCell>
        <mxCell id="dzN_O0dOmK8x91sWcJcT-27" value="" style="endArrow=none;html=1;rounded=0;startArrow=classic;startFill=1;dashed=1;endFill=0;" edge="1" parent="1">
          <mxGeometry width="50" height="50" relative="1" as="geometry">
            <mxPoint x="1260" y="309.17" as="sourcePoint" />
            <mxPoint x="1580" y="309.17" as="targetPoint" />
          </mxGeometry>
        </mxCell>
        <mxCell id="dzN_O0dOmK8x91sWcJcT-28" value="Renvoie la requete VRAI ou FAUSSE&amp;nbsp;" style="edgeLabel;html=1;align=center;verticalAlign=middle;resizable=0;points=[];" connectable="0" vertex="1" parent="dzN_O0dOmK8x91sWcJcT-27">
          <mxGeometry x="-0.0571" y="-2" relative="1" as="geometry">
            <mxPoint as="offset" />
          </mxGeometry>
        </mxCell>
        <mxCell id="dzN_O0dOmK8x91sWcJcT-29" value="Loop" style="shape=umlFrame;whiteSpace=wrap;html=1;pointerEvents=0;" vertex="1" parent="1">
          <mxGeometry x="940" y="190.04" width="720" height="319.96" as="geometry" />
        </mxCell>
        <mxCell id="dzN_O0dOmK8x91sWcJcT-30" value="Tant que identification =! 1&amp;nbsp;" style="text;html=1;align=center;verticalAlign=middle;resizable=0;points=[];autosize=1;strokeColor=none;fillColor=none;" vertex="1" parent="1">
          <mxGeometry x="1000" y="190.04" width="170" height="30" as="geometry" />
        </mxCell>
        <mxCell id="dzN_O0dOmK8x91sWcJcT-32" value="ALT" style="shape=umlFrame;whiteSpace=wrap;html=1;pointerEvents=0;" vertex="1" parent="1">
          <mxGeometry x="940" y="320" width="710" height="140" as="geometry" />
        </mxCell>
        <mxCell id="dzN_O0dOmK8x91sWcJcT-33" value="if identifcation 0&amp;nbsp;" style="text;html=1;align=center;verticalAlign=middle;resizable=0;points=[];autosize=1;strokeColor=none;fillColor=none;" vertex="1" parent="1">
          <mxGeometry x="1020" y="260" width="110" height="30" as="geometry" />
        </mxCell>
        <mxCell id="dzN_O0dOmK8x91sWcJcT-34" value="" style="endArrow=none;html=1;rounded=0;startArrow=classic;startFill=1;dashed=1;endFill=0;" edge="1" parent="1">
          <mxGeometry width="50" height="50" relative="1" as="geometry">
            <mxPoint x="948" y="360" as="sourcePoint" />
            <mxPoint x="1260" y="360" as="targetPoint" />
          </mxGeometry>
        </mxCell>
        <mxCell id="dzN_O0dOmK8x91sWcJcT-35" value="Affiche entrez un mot de passe ou un email valide" style="edgeLabel;html=1;align=center;verticalAlign=middle;resizable=0;points=[];" connectable="0" vertex="1" parent="dzN_O0dOmK8x91sWcJcT-34">
          <mxGeometry x="-0.0571" y="-2" relative="1" as="geometry">
            <mxPoint as="offset" />
          </mxGeometry>
        </mxCell>
        <mxCell id="dzN_O0dOmK8x91sWcJcT-36" value="if FAUX&amp;nbsp;" style="text;html=1;align=center;verticalAlign=middle;resizable=0;points=[];autosize=1;strokeColor=none;fillColor=none;" vertex="1" parent="1">
          <mxGeometry x="1020" y="320" width="70" height="30" as="geometry" />
        </mxCell>
        <mxCell id="dzN_O0dOmK8x91sWcJcT-155" value="if&amp;nbsp; donnÃ©e unique" style="text;html=1;align=center;verticalAlign=middle;resizable=0;points=[];autosize=1;strokeColor=none;fillColor=none;" vertex="1" parent="1">
          <mxGeometry x="1035" y="820" width="120" height="30" as="geometry" />
        </mxCell>
        <mxCell id="dzN_O0dOmK8x91sWcJcT-39" value="" style="html=1;points=[[0,0,0,0,5],[0,1,0,0,-5],[1,0,0,0,5],[1,1,0,0,-5]];perimeter=orthogonalPerimeter;outlineConnect=0;targetShapes=umlLifeline;portConstraint=eastwest;newEdgeStyle={&quot;curved&quot;:0,&quot;rounded&quot;:0};" vertex="1" parent="1">
          <mxGeometry x="1258" y="315" width="10" height="40" as="geometry" />
        </mxCell>
        <mxCell id="dzN_O0dOmK8x91sWcJcT-40" value="else if VRAI identification = 1" style="text;html=1;align=center;verticalAlign=middle;resizable=0;points=[];autosize=1;strokeColor=none;fillColor=none;" vertex="1" parent="1">
          <mxGeometry x="950" y="370" width="180" height="30" as="geometry" />
        </mxCell>
        <mxCell id="dzN_O0dOmK8x91sWcJcT-43" value="" style="endArrow=none;html=1;rounded=0;startArrow=classic;startFill=1;dashed=1;endFill=0;" edge="1" parent="1">
          <mxGeometry width="50" height="50" relative="1" as="geometry">
            <mxPoint x="950" y="410" as="sourcePoint" />
            <mxPoint x="1260" y="410" as="targetPoint" />
          </mxGeometry>
        </mxCell>
        <mxCell id="dzN_O0dOmK8x91sWcJcT-44" value="Connexion ValidÃ©&amp;nbsp;" style="edgeLabel;html=1;align=center;verticalAlign=middle;resizable=0;points=[];" connectable="0" vertex="1" parent="dzN_O0dOmK8x91sWcJcT-43">
          <mxGeometry x="-0.0571" y="-2" relative="1" as="geometry">
            <mxPoint as="offset" />
          </mxGeometry>
        </mxCell>
        <mxCell id="dzN_O0dOmK8x91sWcJcT-48" value="" style="endArrow=none;html=1;rounded=0;exitX=0;exitY=0.813;exitDx=0;exitDy=0;exitPerimeter=0;endFill=0;startArrow=classic;startFill=1;" edge="1" parent="1">
          <mxGeometry width="50" height="50" relative="1" as="geometry">
            <mxPoint x="950.0000000000002" y="430.0799999999999" as="sourcePoint" />
            <mxPoint x="1260" y="430" as="targetPoint" />
          </mxGeometry>
        </mxCell>
        <mxCell id="dzN_O0dOmK8x91sWcJcT-49" value="Rediriger a l&#39;acceuil&amp;nbsp;" style="edgeLabel;html=1;align=center;verticalAlign=middle;resizable=0;points=[];" connectable="0" vertex="1" parent="dzN_O0dOmK8x91sWcJcT-48">
          <mxGeometry x="-0.1248" relative="1" as="geometry">
            <mxPoint as="offset" />
          </mxGeometry>
        </mxCell>
        <mxCell id="dzN_O0dOmK8x91sWcJcT-115" value="Actor" style="shape=umlActor;verticalLabelPosition=bottom;verticalAlign=top;html=1;outlineConnect=0;" vertex="1" parent="1">
          <mxGeometry x="930" y="600" width="30" height="60" as="geometry" />
        </mxCell>
        <mxCell id="dzN_O0dOmK8x91sWcJcT-117" value="Application" style="rounded=0;whiteSpace=wrap;html=1;" vertex="1" parent="1">
          <mxGeometry x="1203" y="620" width="120" height="60" as="geometry" />
        </mxCell>
        <mxCell id="dzN_O0dOmK8x91sWcJcT-118" value="Base de donnÃ©es" style="rounded=0;whiteSpace=wrap;html=1;" vertex="1" parent="1">
          <mxGeometry x="1520" y="620" width="120" height="60" as="geometry" />
        </mxCell>
        <mxCell id="dzN_O0dOmK8x91sWcJcT-119" style="edgeStyle=orthogonalEdgeStyle;rounded=0;orthogonalLoop=1;jettySize=auto;html=1;endArrow=none;endFill=0;dashed=1;" edge="1" parent="1">
          <mxGeometry relative="1" as="geometry">
            <mxPoint x="944.91" y="1130" as="targetPoint" />
            <mxPoint x="944.52347826087" y="680" as="sourcePoint" />
          </mxGeometry>
        </mxCell>
        <mxCell id="dzN_O0dOmK8x91sWcJcT-120" style="edgeStyle=orthogonalEdgeStyle;rounded=0;orthogonalLoop=1;jettySize=auto;html=1;endArrow=none;endFill=0;dashed=1;" edge="1" parent="1">
          <mxGeometry relative="1" as="geometry">
            <mxPoint x="1262.9099999999999" y="1130" as="targetPoint" />
            <mxPoint x="1262.52347826087" y="680" as="sourcePoint" />
          </mxGeometry>
        </mxCell>
        <mxCell id="dzN_O0dOmK8x91sWcJcT-121" style="edgeStyle=orthogonalEdgeStyle;rounded=0;orthogonalLoop=1;jettySize=auto;html=1;endArrow=none;endFill=0;dashed=1;" edge="1" parent="1">
          <mxGeometry relative="1" as="geometry">
            <mxPoint x="1584.9099999999999" y="1130" as="targetPoint" />
            <mxPoint x="1584.52347826087" y="680" as="sourcePoint" />
          </mxGeometry>
        </mxCell>
        <mxCell id="dzN_O0dOmK8x91sWcJcT-122" value="" style="endArrow=classic;html=1;rounded=0;" edge="1" parent="1">
          <mxGeometry width="50" height="50" relative="1" as="geometry">
            <mxPoint x="940" y="700" as="sourcePoint" />
            <mxPoint x="1260" y="700" as="targetPoint" />
          </mxGeometry>
        </mxCell>
        <mxCell id="dzN_O0dOmK8x91sWcJcT-123" value="Appuie pour s&#39;inscrire" style="edgeLabel;html=1;align=center;verticalAlign=middle;resizable=0;points=[];" connectable="0" vertex="1" parent="dzN_O0dOmK8x91sWcJcT-122">
          <mxGeometry x="-0.0571" y="-2" relative="1" as="geometry">
            <mxPoint as="offset" />
          </mxGeometry>
        </mxCell>
        <mxCell id="dzN_O0dOmK8x91sWcJcT-124" value="" style="endArrow=none;html=1;rounded=0;startArrow=classicThin;startFill=1;endFill=0;" edge="1" parent="1">
          <mxGeometry width="50" height="50" relative="1" as="geometry">
            <mxPoint x="940" y="724.33" as="sourcePoint" />
            <mxPoint x="1260" y="724.33" as="targetPoint" />
          </mxGeometry>
        </mxCell>
        <mxCell id="dzN_O0dOmK8x91sWcJcT-127" value="Afficher Formulaire" style="edgeLabel;html=1;align=center;verticalAlign=middle;resizable=0;points=[];" connectable="0" vertex="1" parent="dzN_O0dOmK8x91sWcJcT-124">
          <mxGeometry x="-0.0656" relative="1" as="geometry">
            <mxPoint as="offset" />
          </mxGeometry>
        </mxCell>
        <mxCell id="dzN_O0dOmK8x91sWcJcT-143" value="" style="endArrow=classic;html=1;rounded=0;" edge="1" parent="1">
          <mxGeometry width="50" height="50" relative="1" as="geometry">
            <mxPoint x="940" y="760" as="sourcePoint" />
            <mxPoint x="1260" y="760" as="targetPoint" />
          </mxGeometry>
        </mxCell>
        <mxCell id="dzN_O0dOmK8x91sWcJcT-144" value="Remplir le formulaire / Envoie la reponse" style="edgeLabel;html=1;align=center;verticalAlign=middle;resizable=0;points=[];" connectable="0" vertex="1" parent="dzN_O0dOmK8x91sWcJcT-143">
          <mxGeometry x="-0.0571" y="-2" relative="1" as="geometry">
            <mxPoint x="7" y="-2" as="offset" />
          </mxGeometry>
        </mxCell>
        <mxCell id="dzN_O0dOmK8x91sWcJcT-148" value="" style="endArrow=classic;html=1;rounded=0;" edge="1" parent="1">
          <mxGeometry width="50" height="50" relative="1" as="geometry">
            <mxPoint x="1260" y="790" as="sourcePoint" />
            <mxPoint x="1580" y="790" as="targetPoint" />
          </mxGeometry>
        </mxCell>
        <mxCell id="dzN_O0dOmK8x91sWcJcT-151" value="Envoie&amp;nbsp; donnÃ©es&amp;nbsp;" style="edgeLabel;html=1;align=center;verticalAlign=middle;resizable=0;points=[];" connectable="0" vertex="1" parent="dzN_O0dOmK8x91sWcJcT-148">
          <mxGeometry x="-0.0449" y="2" relative="1" as="geometry">
            <mxPoint as="offset" />
          </mxGeometry>
        </mxCell>
        <mxCell id="dzN_O0dOmK8x91sWcJcT-152" value="" style="endArrow=none;html=1;rounded=0;dashed=1;endFill=0;startArrow=classicThin;startFill=1;" edge="1" parent="1">
          <mxGeometry width="50" height="50" relative="1" as="geometry">
            <mxPoint x="1268" y="830" as="sourcePoint" />
            <mxPoint x="1588" y="830" as="targetPoint" />
          </mxGeometry>
        </mxCell>
        <mxCell id="dzN_O0dOmK8x91sWcJcT-153" value="Renvoie la reponse&amp;nbsp;" style="edgeLabel;html=1;align=center;verticalAlign=middle;resizable=0;points=[];" connectable="0" vertex="1" parent="dzN_O0dOmK8x91sWcJcT-152">
          <mxGeometry x="-0.0449" y="2" relative="1" as="geometry">
            <mxPoint as="offset" />
          </mxGeometry>
        </mxCell>
        <mxCell id="dzN_O0dOmK8x91sWcJcT-154" value="Alt" style="shape=umlFrame;whiteSpace=wrap;html=1;pointerEvents=0;" vertex="1" parent="1">
          <mxGeometry x="948" y="820" width="642" height="100" as="geometry" />
        </mxCell>
        <mxCell id="06OjPZyOfryMRRsR2foB-7" value="RÃSERVATION" style="swimlane;whiteSpace=wrap;html=1;startSize=23;" vertex="1" parent="1">
          <mxGeometry x="40" y="70" width="600" height="1580" as="geometry" />
        </mxCell>
        <mxCell id="06OjPZyOfryMRRsR2foB-80" value="Agency" style="shape=umlLifeline;perimeter=lifelinePerimeter;whiteSpace=wrap;html=1;container=1;dropTarget=0;collapsible=0;recursiveResize=0;outlineConnect=0;portConstraint=eastwest;newEdgeStyle={&quot;curved&quot;:0,&quot;rounded&quot;:0};shadow=0;" vertex="1" parent="06OjPZyOfryMRRsR2foB-7">
          <mxGeometry x="129" y="48" width="100" height="1532" as="geometry" />
        </mxCell>
        <mxCell id="V1qCbwQH9o08SnHCUsVQ-4" value="" style="html=1;points=[[0,0,0,0,5],[0,1,0,0,-5],[1,0,0,0,5],[1,1,0,0,-5]];perimeter=orthogonalPerimeter;outlineConnect=0;targetShapes=umlLifeline;portConstraint=eastwest;newEdgeStyle={&quot;curved&quot;:0,&quot;rounded&quot;:0};" vertex="1" parent="06OjPZyOfryMRRsR2foB-80">
          <mxGeometry x="45" y="1163" width="10" height="317" as="geometry" />
        </mxCell>
        <mxCell id="V1qCbwQH9o08SnHCUsVQ-23" value="" style="html=1;points=[[0,0,0,0,5],[0,1,0,0,-5],[1,0,0,0,5],[1,1,0,0,-5]];perimeter=orthogonalPerimeter;outlineConnect=0;targetShapes=umlLifeline;portConstraint=eastwest;newEdgeStyle={&quot;curved&quot;:0,&quot;rounded&quot;:0};" vertex="1" parent="06OjPZyOfryMRRsR2foB-80">
          <mxGeometry x="50" y="1360" width="10" height="20" as="geometry" />
        </mxCell>
        <mxCell id="V1qCbwQH9o08SnHCUsVQ-24" value="annule&lt;br&gt;rÃ©servation" style="html=1;align=left;spacingLeft=2;endArrow=block;rounded=0;edgeStyle=orthogonalEdgeStyle;curved=0;rounded=0;" edge="1" parent="06OjPZyOfryMRRsR2foB-80" target="V1qCbwQH9o08SnHCUsVQ-23">
          <mxGeometry relative="1" as="geometry">
            <mxPoint x="55" y="1340" as="sourcePoint" />
            <Array as="points">
              <mxPoint x="85" y="1370" />
            </Array>
          </mxGeometry>
        </mxCell>
        <mxCell id="06OjPZyOfryMRRsR2foB-40" value="" style="html=1;points=[[0,0,0,0,5],[0,1,0,0,-5],[1,0,0,0,5],[1,1,0,0,-5]];perimeter=orthogonalPerimeter;outlineConnect=0;targetShapes=umlLifeline;portConstraint=eastwest;newEdgeStyle={&quot;curved&quot;:0,&quot;rounded&quot;:0};" vertex="1" parent="06OjPZyOfryMRRsR2foB-7">
          <mxGeometry x="174" y="410" width="10" height="780" as="geometry" />
        </mxCell>
        <mxCell id="06OjPZyOfryMRRsR2foB-5" value="REF" style="shape=umlFrame;whiteSpace=wrap;html=1;pointerEvents=0;" vertex="1" parent="06OjPZyOfryMRRsR2foB-7">
          <mxGeometry x="34" y="275" width="290" height="30" as="geometry" />
        </mxCell>
        <mxCell id="06OjPZyOfryMRRsR2foB-6" value="Connexion / Inscription" style="text;html=1;align=center;verticalAlign=middle;resizable=0;points=[];autosize=1;strokeColor=none;fillColor=none;" vertex="1" parent="06OjPZyOfryMRRsR2foB-7">
          <mxGeometry x="104" y="275" width="150" height="30" as="geometry" />
        </mxCell>
        <mxCell id="06OjPZyOfryMRRsR2foB-14" value="Recherche vol" style="html=1;verticalAlign=bottom;endArrow=block;curved=0;rounded=0;entryX=0;entryY=0;entryDx=0;entryDy=5;" edge="1" parent="06OjPZyOfryMRRsR2foB-7">
          <mxGeometry relative="1" as="geometry">
            <mxPoint x="58.810344827586164" y="113" as="sourcePoint" />
            <mxPoint x="174.0000000000001" y="113" as="targetPoint" />
          </mxGeometry>
        </mxCell>
        <mxCell id="06OjPZyOfryMRRsR2foB-15" value="Affiche vols" style="html=1;verticalAlign=bottom;endArrow=open;dashed=1;endSize=8;curved=0;rounded=0;exitX=0;exitY=1;exitDx=0;exitDy=-5;" edge="1" parent="06OjPZyOfryMRRsR2foB-7">
          <mxGeometry relative="1" as="geometry">
            <mxPoint x="58.810344827586164" y="133" as="targetPoint" />
            <mxPoint x="174.0000000000001" y="133" as="sourcePoint" />
          </mxGeometry>
        </mxCell>
        <mxCell id="06OjPZyOfryMRRsR2foB-22" value="Choix du vol" style="html=1;verticalAlign=bottom;endArrow=block;curved=0;rounded=0;entryX=0;entryY=0;entryDx=0;entryDy=5;" edge="1" parent="06OjPZyOfryMRRsR2foB-7">
          <mxGeometry relative="1" as="geometry">
            <mxPoint x="58.810344827586164" y="160.03999999999996" as="sourcePoint" />
            <mxPoint x="174.0000000000001" y="160.03999999999996" as="targetPoint" />
          </mxGeometry>
        </mxCell>
        <mxCell id="06OjPZyOfryMRRsR2foB-23" value="Affiche infos vol" style="html=1;verticalAlign=bottom;endArrow=open;dashed=1;endSize=8;curved=0;rounded=0;exitX=0;exitY=1;exitDx=0;exitDy=-5;" edge="1" parent="06OjPZyOfryMRRsR2foB-7">
          <mxGeometry relative="1" as="geometry">
            <mxPoint x="58.810344827586164" y="183" as="targetPoint" />
            <mxPoint x="174.0000000000001" y="183" as="sourcePoint" />
          </mxGeometry>
        </mxCell>
        <mxCell id="06OjPZyOfryMRRsR2foB-24" value="ALT" style="shape=umlFrame;whiteSpace=wrap;html=1;pointerEvents=0;" vertex="1" parent="06OjPZyOfryMRRsR2foB-7">
          <mxGeometry x="19" y="200" width="330" height="340" as="geometry" />
        </mxCell>
        <mxCell id="06OjPZyOfryMRRsR2foB-25" value="(veut rÃ©server)" style="text;html=1;align=center;verticalAlign=middle;resizable=0;points=[];autosize=1;strokeColor=none;fillColor=none;" vertex="1" parent="06OjPZyOfryMRRsR2foB-7">
          <mxGeometry x="79" y="200" width="100" height="30" as="geometry" />
        </mxCell>
        <mxCell id="06OjPZyOfryMRRsR2foB-26" value="ALT" style="shape=umlFrame;whiteSpace=wrap;html=1;pointerEvents=0;" vertex="1" parent="06OjPZyOfryMRRsR2foB-7">
          <mxGeometry x="29" y="240" width="310" height="190" as="geometry" />
        </mxCell>
        <mxCell id="06OjPZyOfryMRRsR2foB-27" value="(est pas connectÃ©)" style="text;html=1;align=center;verticalAlign=middle;resizable=0;points=[];autosize=1;strokeColor=none;fillColor=none;" vertex="1" parent="06OjPZyOfryMRRsR2foB-7">
          <mxGeometry x="79" y="320" width="120" height="30" as="geometry" />
        </mxCell>
        <mxCell id="06OjPZyOfryMRRsR2foB-28" value="" style="endArrow=none;dashed=1;html=1;rounded=0;exitX=-0.009;exitY=0.327;exitDx=0;exitDy=0;exitPerimeter=0;entryX=1;entryY=0.327;entryDx=0;entryDy=0;entryPerimeter=0;" edge="1" parent="06OjPZyOfryMRRsR2foB-7">
          <mxGeometry width="50" height="50" relative="1" as="geometry">
            <mxPoint x="29.000000000000036" y="318" as="sourcePoint" />
            <mxPoint x="341.79" y="318" as="targetPoint" />
          </mxGeometry>
        </mxCell>
        <mxCell id="06OjPZyOfryMRRsR2foB-29" value="(est pas inscrit)" style="text;html=1;align=center;verticalAlign=middle;resizable=0;points=[];autosize=1;strokeColor=none;fillColor=none;" vertex="1" parent="06OjPZyOfryMRRsR2foB-7">
          <mxGeometry x="84" y="245" width="100" height="30" as="geometry" />
        </mxCell>
        <mxCell id="06OjPZyOfryMRRsR2foB-30" value="REF" style="shape=umlFrame;whiteSpace=wrap;html=1;pointerEvents=0;" vertex="1" parent="06OjPZyOfryMRRsR2foB-7">
          <mxGeometry x="34" y="350" width="290" height="30" as="geometry" />
        </mxCell>
        <mxCell id="06OjPZyOfryMRRsR2foB-31" value="Connexion / Inscription" style="text;html=1;align=center;verticalAlign=middle;resizable=0;points=[];autosize=1;strokeColor=none;fillColor=none;" vertex="1" parent="06OjPZyOfryMRRsR2foB-7">
          <mxGeometry x="104" y="350" width="150" height="30" as="geometry" />
        </mxCell>
        <mxCell id="06OjPZyOfryMRRsR2foB-32" value="" style="endArrow=none;dashed=1;html=1;rounded=0;entryX=1.005;entryY=0.632;entryDx=0;entryDy=0;entryPerimeter=0;" edge="1" parent="06OjPZyOfryMRRsR2foB-7">
          <mxGeometry width="50" height="50" relative="1" as="geometry">
            <mxPoint x="29" y="390" as="sourcePoint" />
            <mxPoint x="336.32000000000005" y="390.00000000000017" as="targetPoint" />
          </mxGeometry>
        </mxCell>
        <mxCell id="06OjPZyOfryMRRsR2foB-33" value="(est connectÃ©)" style="text;html=1;align=center;verticalAlign=middle;resizable=0;points=[];autosize=1;strokeColor=none;fillColor=none;" vertex="1" parent="06OjPZyOfryMRRsR2foB-7">
          <mxGeometry x="79" y="386" width="100" height="30" as="geometry" />
        </mxCell>
        <mxCell id="06OjPZyOfryMRRsR2foB-41" value="Redirection rÃ©servation" style="html=1;verticalAlign=bottom;endArrow=block;curved=0;rounded=0;entryX=0;entryY=0;entryDx=0;entryDy=5;" edge="1" parent="06OjPZyOfryMRRsR2foB-7">
          <mxGeometry relative="1" as="geometry">
            <mxPoint x="183.99857142857144" y="416" as="sourcePoint" />
            <mxPoint x="289.07" y="416" as="targetPoint" />
          </mxGeometry>
        </mxCell>
        <mxCell id="06OjPZyOfryMRRsR2foB-43" value="Envoi form rÃ©servation" style="html=1;verticalAlign=bottom;endArrow=block;curved=0;rounded=0;" edge="1" parent="06OjPZyOfryMRRsR2foB-7" source="06OjPZyOfryMRRsR2foB-40">
          <mxGeometry width="80" relative="1" as="geometry">
            <mxPoint x="189" y="450" as="sourcePoint" />
            <mxPoint x="290.07" y="450" as="targetPoint" />
          </mxGeometry>
        </mxCell>
        <mxCell id="06OjPZyOfryMRRsR2foB-45" value="Rempli formulaire" style="html=1;verticalAlign=bottom;endArrow=open;dashed=1;endSize=8;curved=0;rounded=0;" edge="1" parent="06OjPZyOfryMRRsR2foB-7" target="06OjPZyOfryMRRsR2foB-40">
          <mxGeometry relative="1" as="geometry">
            <mxPoint x="289" y="468" as="sourcePoint" />
            <mxPoint x="189" y="468" as="targetPoint" />
          </mxGeometry>
        </mxCell>
        <mxCell id="06OjPZyOfryMRRsR2foB-46" value="" style="endArrow=none;dashed=1;html=1;rounded=0;exitX=-0.005;exitY=0.583;exitDx=0;exitDy=0;exitPerimeter=0;entryX=1.002;entryY=0.581;entryDx=0;entryDy=0;entryPerimeter=0;" edge="1" parent="06OjPZyOfryMRRsR2foB-7">
          <mxGeometry width="50" height="50" relative="1" as="geometry">
            <mxPoint x="16.690000000000023" y="480.8799999999999" as="sourcePoint" />
            <mxPoint x="348.99999999999994" y="480" as="targetPoint" />
          </mxGeometry>
        </mxCell>
        <mxCell id="06OjPZyOfryMRRsR2foB-49" value="(ne rÃ©serve pas)" style="text;html=1;align=center;verticalAlign=middle;resizable=0;points=[];autosize=1;strokeColor=none;fillColor=none;" vertex="1" parent="06OjPZyOfryMRRsR2foB-7">
          <mxGeometry x="84" y="478" width="110" height="30" as="geometry" />
        </mxCell>
        <mxCell id="06OjPZyOfryMRRsR2foB-50" value="ALT" style="shape=umlFrame;whiteSpace=wrap;html=1;pointerEvents=0;" vertex="1" parent="06OjPZyOfryMRRsR2foB-7">
          <mxGeometry x="29" y="550" width="320" height="350" as="geometry" />
        </mxCell>
        <mxCell id="06OjPZyOfryMRRsR2foB-51" value="(reserve pour soi)" style="text;html=1;align=center;verticalAlign=middle;resizable=0;points=[];autosize=1;strokeColor=none;fillColor=none;" vertex="1" parent="06OjPZyOfryMRRsR2foB-7">
          <mxGeometry x="84" y="550" width="120" height="30" as="geometry" />
        </mxCell>
        <mxCell id="06OjPZyOfryMRRsR2foB-54" value="ALT" style="shape=umlFrame;whiteSpace=wrap;html=1;pointerEvents=0;" vertex="1" parent="06OjPZyOfryMRRsR2foB-7">
          <mxGeometry x="39" y="595" width="300" height="245" as="geometry" />
        </mxCell>
        <mxCell id="06OjPZyOfryMRRsR2foB-55" value="(dÃ©jÃ  rÃ©servÃ© auparavant)" style="text;html=1;align=center;verticalAlign=middle;resizable=0;points=[];autosize=1;strokeColor=none;fillColor=none;" vertex="1" parent="06OjPZyOfryMRRsR2foB-7">
          <mxGeometry x="84" y="610" width="160" height="30" as="geometry" />
        </mxCell>
        <mxCell id="06OjPZyOfryMRRsR2foB-56" value="" style="html=1;points=[[0,0,0,0,5],[0,1,0,0,-5],[1,0,0,0,5],[1,1,0,0,-5]];perimeter=orthogonalPerimeter;outlineConnect=0;targetShapes=umlLifeline;portConstraint=eastwest;newEdgeStyle={&quot;curved&quot;:0,&quot;rounded&quot;:0};" vertex="1" parent="06OjPZyOfryMRRsR2foB-7">
          <mxGeometry x="179" y="660" width="10" height="20" as="geometry" />
        </mxCell>
        <mxCell id="06OjPZyOfryMRRsR2foB-57" value="RÃ©cup donnÃ©es&lt;br&gt;User" style="html=1;align=left;spacingLeft=2;endArrow=block;rounded=0;edgeStyle=orthogonalEdgeStyle;curved=0;rounded=0;" edge="1" parent="06OjPZyOfryMRRsR2foB-7" target="06OjPZyOfryMRRsR2foB-56">
          <mxGeometry relative="1" as="geometry">
            <mxPoint x="184" y="640" as="sourcePoint" />
            <Array as="points">
              <mxPoint x="214" y="670" />
            </Array>
          </mxGeometry>
        </mxCell>
        <mxCell id="06OjPZyOfryMRRsR2foB-58" value="" style="endArrow=none;dashed=1;html=1;rounded=0;exitX=-0.003;exitY=0.353;exitDx=0;exitDy=0;exitPerimeter=0;entryX=1;entryY=0.359;entryDx=0;entryDy=0;entryPerimeter=0;" edge="1" parent="06OjPZyOfryMRRsR2foB-7">
          <mxGeometry width="50" height="50" relative="1" as="geometry">
            <mxPoint x="38.10000000000002" y="690.005" as="sourcePoint" />
            <mxPoint x="339" y="691.715" as="targetPoint" />
          </mxGeometry>
        </mxCell>
        <mxCell id="06OjPZyOfryMRRsR2foB-59" value="(jamais rÃ©servÃ©)" style="text;html=1;align=center;verticalAlign=middle;resizable=0;points=[];autosize=1;strokeColor=none;fillColor=none;" vertex="1" parent="06OjPZyOfryMRRsR2foB-7">
          <mxGeometry x="84" y="688" width="110" height="30" as="geometry" />
        </mxCell>
        <mxCell id="06OjPZyOfryMRRsR2foB-60" value="" style="html=1;points=[[0,0,0,0,5],[0,1,0,0,-5],[1,0,0,0,5],[1,1,0,0,-5]];perimeter=orthogonalPerimeter;outlineConnect=0;targetShapes=umlLifeline;portConstraint=eastwest;newEdgeStyle={&quot;curved&quot;:0,&quot;rounded&quot;:0};" vertex="1" parent="06OjPZyOfryMRRsR2foB-7">
          <mxGeometry x="284" y="710" width="10" height="30" as="geometry" />
        </mxCell>
        <mxCell id="06OjPZyOfryMRRsR2foB-61" value="indique ses coords" style="html=1;verticalAlign=bottom;endArrow=block;curved=0;rounded=0;exitX=0;exitY=0;exitDx=0;exitDy=5;exitPerimeter=0;entryX=0.905;entryY=0.97;entryDx=0;entryDy=0;entryPerimeter=0;" edge="1" parent="06OjPZyOfryMRRsR2foB-7" source="06OjPZyOfryMRRsR2foB-60" target="06OjPZyOfryMRRsR2foB-59">
          <mxGeometry relative="1" as="geometry">
            <mxPoint x="230.92857142857144" y="715" as="sourcePoint" />
            <mxPoint x="236" y="715" as="targetPoint" />
          </mxGeometry>
        </mxCell>
        <mxCell id="06OjPZyOfryMRRsR2foB-62" value="propose d&#39;enregistrer" style="html=1;verticalAlign=bottom;endArrow=open;dashed=1;endSize=8;curved=0;rounded=0;entryX=0;entryY=1;entryDx=0;entryDy=-5;entryPerimeter=0;" edge="1" parent="06OjPZyOfryMRRsR2foB-7" source="06OjPZyOfryMRRsR2foB-40" target="06OjPZyOfryMRRsR2foB-60">
          <mxGeometry relative="1" as="geometry">
            <mxPoint x="232.92857142857144" y="735" as="targetPoint" />
            <mxPoint x="238" y="735" as="sourcePoint" />
          </mxGeometry>
        </mxCell>
        <mxCell id="06OjPZyOfryMRRsR2foB-63" value="OPT" style="shape=umlFrame;whiteSpace=wrap;html=1;pointerEvents=0;" vertex="1" parent="06OjPZyOfryMRRsR2foB-7">
          <mxGeometry x="49" y="750" width="280" height="80" as="geometry" />
        </mxCell>
        <mxCell id="06OjPZyOfryMRRsR2foB-64" value="(veut enregistrer)" style="text;html=1;align=center;verticalAlign=middle;resizable=0;points=[];autosize=1;strokeColor=none;fillColor=none;" vertex="1" parent="06OjPZyOfryMRRsR2foB-7">
          <mxGeometry x="104" y="750" width="110" height="30" as="geometry" />
        </mxCell>
        <mxCell id="06OjPZyOfryMRRsR2foB-66" value="" style="html=1;points=[[0,0,0,0,5],[0,1,0,0,-5],[1,0,0,0,5],[1,1,0,0,-5]];perimeter=orthogonalPerimeter;outlineConnect=0;targetShapes=umlLifeline;portConstraint=eastwest;newEdgeStyle={&quot;curved&quot;:0,&quot;rounded&quot;:0};" vertex="1" parent="06OjPZyOfryMRRsR2foB-7">
          <mxGeometry x="179" y="800" width="10" height="20" as="geometry" />
        </mxCell>
        <mxCell id="06OjPZyOfryMRRsR2foB-67" value="Enregistre les&lt;br&gt;donnÃ©es" style="html=1;align=left;spacingLeft=2;endArrow=block;rounded=0;edgeStyle=orthogonalEdgeStyle;curved=0;rounded=0;" edge="1" parent="06OjPZyOfryMRRsR2foB-7" target="06OjPZyOfryMRRsR2foB-66">
          <mxGeometry relative="1" as="geometry">
            <mxPoint x="184" y="780" as="sourcePoint" />
            <Array as="points">
              <mxPoint x="214" y="810" />
            </Array>
          </mxGeometry>
        </mxCell>
        <mxCell id="06OjPZyOfryMRRsR2foB-70" value="" style="endArrow=none;dashed=1;html=1;rounded=0;exitX=0.003;exitY=0.687;exitDx=0;exitDy=0;exitPerimeter=0;entryX=1.009;entryY=0.687;entryDx=0;entryDy=0;entryPerimeter=0;" edge="1" parent="06OjPZyOfryMRRsR2foB-7">
          <mxGeometry width="50" height="50" relative="1" as="geometry">
            <mxPoint x="34.000000000000036" y="852" as="sourcePoint" />
            <mxPoint x="355.92" y="852" as="targetPoint" />
          </mxGeometry>
        </mxCell>
        <mxCell id="06OjPZyOfryMRRsR2foB-71" value="(reserve pour qlq d&#39;autre)" style="text;html=1;align=center;verticalAlign=middle;resizable=0;points=[];autosize=1;strokeColor=none;fillColor=none;" vertex="1" parent="06OjPZyOfryMRRsR2foB-7">
          <mxGeometry x="84" y="852" width="160" height="30" as="geometry" />
        </mxCell>
        <mxCell id="06OjPZyOfryMRRsR2foB-76" value="indique les coords" style="html=1;verticalAlign=bottom;endArrow=block;curved=0;rounded=0;" edge="1" parent="06OjPZyOfryMRRsR2foB-7">
          <mxGeometry relative="1" as="geometry">
            <mxPoint x="288.5" y="890" as="sourcePoint" />
            <mxPoint x="184" y="890" as="targetPoint" />
          </mxGeometry>
        </mxCell>
        <mxCell id="06OjPZyOfryMRRsR2foB-79" value="User" style="shape=umlLifeline;perimeter=lifelinePerimeter;whiteSpace=wrap;html=1;container=1;dropTarget=0;collapsible=0;recursiveResize=0;outlineConnect=0;portConstraint=eastwest;newEdgeStyle={&quot;curved&quot;:0,&quot;rounded&quot;:0};" vertex="1" parent="06OjPZyOfryMRRsR2foB-7">
          <mxGeometry x="9" y="48" width="100" height="1532" as="geometry" />
        </mxCell>
        <mxCell id="06OjPZyOfryMRRsR2foB-81" value="Customer" style="shape=umlLifeline;perimeter=lifelinePerimeter;whiteSpace=wrap;html=1;container=1;dropTarget=0;collapsible=0;recursiveResize=0;outlineConnect=0;portConstraint=eastwest;newEdgeStyle={&quot;curved&quot;:0,&quot;rounded&quot;:0};" vertex="1" parent="06OjPZyOfryMRRsR2foB-7">
          <mxGeometry x="239" y="48" width="100" height="1532" as="geometry" />
        </mxCell>
        <mxCell id="06OjPZyOfryMRRsR2foB-82" value="Centre d&#39;autorisation" style="shape=umlLifeline;perimeter=lifelinePerimeter;whiteSpace=wrap;html=1;container=1;dropTarget=0;collapsible=0;recursiveResize=0;outlineConnect=0;portConstraint=eastwest;newEdgeStyle={&quot;curved&quot;:0,&quot;rounded&quot;:0};" vertex="1" parent="06OjPZyOfryMRRsR2foB-7">
          <mxGeometry x="368" y="48" width="100" height="1532" as="geometry" />
        </mxCell>
        <mxCell id="V1qCbwQH9o08SnHCUsVQ-18" value="" style="html=1;points=[[0,0,0,0,5],[0,1,0,0,-5],[1,0,0,0,5],[1,1,0,0,-5]];perimeter=orthogonalPerimeter;outlineConnect=0;targetShapes=umlLifeline;portConstraint=eastwest;newEdgeStyle={&quot;curved&quot;:0,&quot;rounded&quot;:0};" vertex="1" parent="06OjPZyOfryMRRsR2foB-82">
          <mxGeometry x="45" y="1192" width="10" height="38" as="geometry" />
        </mxCell>
        <mxCell id="06OjPZyOfryMRRsR2foB-83" value="Envoi form rempli" style="html=1;verticalAlign=bottom;endArrow=block;curved=0;rounded=0;" edge="1" parent="06OjPZyOfryMRRsR2foB-7" target="06OjPZyOfryMRRsR2foB-40">
          <mxGeometry width="80" relative="1" as="geometry">
            <mxPoint x="288.5" y="920" as="sourcePoint" />
            <mxPoint x="189" y="920" as="targetPoint" />
          </mxGeometry>
        </mxCell>
        <mxCell id="06OjPZyOfryMRRsR2foB-84" value="" style="html=1;points=[[0,0,0,0,5],[0,1,0,0,-5],[1,0,0,0,5],[1,1,0,0,-5]];perimeter=orthogonalPerimeter;outlineConnect=0;targetShapes=umlLifeline;portConstraint=eastwest;newEdgeStyle={&quot;curved&quot;:0,&quot;rounded&quot;:0};" vertex="1" parent="06OjPZyOfryMRRsR2foB-7">
          <mxGeometry x="179" y="951" width="10" height="19" as="geometry" />
        </mxCell>
        <mxCell id="06OjPZyOfryMRRsR2foB-85" value="vÃ©rifie les &lt;br&gt;donnÃ©es" style="html=1;align=left;spacingLeft=2;endArrow=block;rounded=0;edgeStyle=orthogonalEdgeStyle;curved=0;rounded=0;" edge="1" parent="06OjPZyOfryMRRsR2foB-7" target="06OjPZyOfryMRRsR2foB-84">
          <mxGeometry relative="1" as="geometry">
            <mxPoint x="184" y="931" as="sourcePoint" />
            <Array as="points">
              <mxPoint x="214" y="961" />
            </Array>
          </mxGeometry>
        </mxCell>
        <mxCell id="06OjPZyOfryMRRsR2foB-86" value="" style="html=1;points=[[0,0,0,0,5],[0,1,0,0,-5],[1,0,0,0,5],[1,1,0,0,-5]];perimeter=orthogonalPerimeter;outlineConnect=0;targetShapes=umlLifeline;portConstraint=eastwest;newEdgeStyle={&quot;curved&quot;:0,&quot;rounded&quot;:0};" vertex="1" parent="06OjPZyOfryMRRsR2foB-7">
          <mxGeometry x="284" y="510" width="10" height="20" as="geometry" />
        </mxCell>
        <mxCell id="06OjPZyOfryMRRsR2foB-87" value="quitte la&lt;br&gt;page" style="html=1;align=left;spacingLeft=2;endArrow=block;rounded=0;edgeStyle=orthogonalEdgeStyle;curved=0;rounded=0;" edge="1" parent="06OjPZyOfryMRRsR2foB-7" target="06OjPZyOfryMRRsR2foB-86">
          <mxGeometry relative="1" as="geometry">
            <mxPoint x="289" y="490" as="sourcePoint" />
            <Array as="points">
              <mxPoint x="319" y="520" />
            </Array>
          </mxGeometry>
        </mxCell>
        <mxCell id="06OjPZyOfryMRRsR2foB-88" value="ALT" style="shape=umlFrame;whiteSpace=wrap;html=1;pointerEvents=0;" vertex="1" parent="06OjPZyOfryMRRsR2foB-7">
          <mxGeometry x="29" y="980" width="320" height="200" as="geometry" />
        </mxCell>
        <mxCell id="06OjPZyOfryMRRsR2foB-89" value="(donnÃ©es ok)" style="text;html=1;align=center;verticalAlign=middle;resizable=0;points=[];autosize=1;strokeColor=none;fillColor=none;" vertex="1" parent="06OjPZyOfryMRRsR2foB-7">
          <mxGeometry x="84" y="980" width="90" height="30" as="geometry" />
        </mxCell>
        <mxCell id="06OjPZyOfryMRRsR2foB-90" value="redirection paiement" style="html=1;verticalAlign=bottom;endArrow=open;dashed=1;endSize=8;curved=0;rounded=0;" edge="1" parent="06OjPZyOfryMRRsR2foB-7">
          <mxGeometry relative="1" as="geometry">
            <mxPoint x="184.0000000000001" y="1010" as="sourcePoint" />
            <mxPoint x="288.5000000000001" y="1010" as="targetPoint" />
          </mxGeometry>
        </mxCell>
        <mxCell id="06OjPZyOfryMRRsR2foB-91" value="" style="endArrow=none;dashed=1;html=1;rounded=0;exitX=-0.006;exitY=0.274;exitDx=0;exitDy=0;exitPerimeter=0;entryX=1.005;entryY=0.271;entryDx=0;entryDy=0;entryPerimeter=0;" edge="1" parent="06OjPZyOfryMRRsR2foB-7">
          <mxGeometry width="50" height="50" relative="1" as="geometry">
            <mxPoint x="25.479999999999926" y="1020.6000000000001" as="sourcePoint" />
            <mxPoint x="348.9999999999999" y="1020" as="targetPoint" />
          </mxGeometry>
        </mxCell>
        <mxCell id="06OjPZyOfryMRRsR2foB-92" value="Indique l&#39;erreur" style="html=1;verticalAlign=bottom;endArrow=open;dashed=1;endSize=8;curved=0;rounded=0;" edge="1" parent="06OjPZyOfryMRRsR2foB-7">
          <mxGeometry relative="1" as="geometry">
            <mxPoint x="184.0000000000001" y="1050" as="sourcePoint" />
            <mxPoint x="288.5000000000001" y="1050" as="targetPoint" />
          </mxGeometry>
        </mxCell>
        <mxCell id="06OjPZyOfryMRRsR2foB-95" value="Envoi correction" style="html=1;verticalAlign=bottom;endArrow=block;curved=0;rounded=0;" edge="1" parent="06OjPZyOfryMRRsR2foB-7">
          <mxGeometry width="80" relative="1" as="geometry">
            <mxPoint x="288.5000000000001" y="1079.66" as="sourcePoint" />
            <mxPoint x="184.0000000000001" y="1079.66" as="targetPoint" />
          </mxGeometry>
        </mxCell>
        <mxCell id="06OjPZyOfryMRRsR2foB-96" value="(donnÃ©es non ok)" style="text;html=1;align=center;verticalAlign=middle;resizable=0;points=[];autosize=1;strokeColor=none;fillColor=none;" vertex="1" parent="06OjPZyOfryMRRsR2foB-7">
          <mxGeometry x="54" y="1060" width="120" height="30" as="geometry" />
        </mxCell>
        <mxCell id="06OjPZyOfryMRRsR2foB-97" value="" style="html=1;points=[[0,0,0,0,5],[0,1,0,0,-5],[1,0,0,0,5],[1,1,0,0,-5]];perimeter=orthogonalPerimeter;outlineConnect=0;targetShapes=umlLifeline;portConstraint=eastwest;newEdgeStyle={&quot;curved&quot;:0,&quot;rounded&quot;:0};" vertex="1" parent="06OjPZyOfryMRRsR2foB-7">
          <mxGeometry x="179" y="1110" width="10" height="19" as="geometry" />
        </mxCell>
        <mxCell id="06OjPZyOfryMRRsR2foB-98" value="vÃ©rifie les &lt;br&gt;donnÃ©es" style="html=1;align=left;spacingLeft=2;endArrow=block;rounded=0;edgeStyle=orthogonalEdgeStyle;curved=0;rounded=0;" edge="1" parent="06OjPZyOfryMRRsR2foB-7" target="06OjPZyOfryMRRsR2foB-97">
          <mxGeometry relative="1" as="geometry">
            <mxPoint x="184" y="1090" as="sourcePoint" />
            <Array as="points">
              <mxPoint x="214" y="1120" />
            </Array>
          </mxGeometry>
        </mxCell>
        <mxCell id="06OjPZyOfryMRRsR2foB-99" value="LOOPS" style="shape=umlFrame;whiteSpace=wrap;html=1;pointerEvents=0;" vertex="1" parent="06OjPZyOfryMRRsR2foB-7">
          <mxGeometry x="39" y="1030" width="290" height="110" as="geometry" />
        </mxCell>
        <mxCell id="V1qCbwQH9o08SnHCUsVQ-1" value="utilise CB" style="html=1;verticalAlign=bottom;startArrow=oval;startFill=1;endArrow=block;startSize=8;curved=0;rounded=0;entryX=0.5;entryY=0.923;entryDx=0;entryDy=0;entryPerimeter=0;" edge="1" parent="06OjPZyOfryMRRsR2foB-7">
          <mxGeometry width="60" relative="1" as="geometry">
            <mxPoint x="288.5" y="1210" as="sourcePoint" />
            <mxPoint x="179" y="1210" as="targetPoint" />
          </mxGeometry>
        </mxCell>
        <mxCell id="V1qCbwQH9o08SnHCUsVQ-19" value="Demande autorisation" style="html=1;verticalAlign=bottom;endArrow=block;curved=0;rounded=0;entryX=0;entryY=0;entryDx=0;entryDy=5;" edge="1" parent="06OjPZyOfryMRRsR2foB-7" source="06OjPZyOfryMRRsR2foB-80" target="V1qCbwQH9o08SnHCUsVQ-18">
          <mxGeometry relative="1" as="geometry">
            <mxPoint x="343" y="1245" as="sourcePoint" />
          </mxGeometry>
        </mxCell>
        <mxCell id="V1qCbwQH9o08SnHCUsVQ-20" value="confirmation de l&#39;autorisation" style="html=1;verticalAlign=bottom;endArrow=open;dashed=1;endSize=8;curved=0;rounded=0;exitX=0;exitY=1;exitDx=0;exitDy=-5;" edge="1" parent="06OjPZyOfryMRRsR2foB-7" source="V1qCbwQH9o08SnHCUsVQ-18" target="06OjPZyOfryMRRsR2foB-80">
          <mxGeometry relative="1" as="geometry">
            <mxPoint x="343" y="1315" as="targetPoint" />
          </mxGeometry>
        </mxCell>
        <mxCell id="V1qCbwQH9o08SnHCUsVQ-12" value="valide ?" style="text;html=1;align=center;verticalAlign=middle;resizable=0;points=[];autosize=1;strokeColor=none;fillColor=none;" vertex="1" parent="06OjPZyOfryMRRsR2foB-7">
          <mxGeometry x="229.00000000000006" y="1290" width="60" height="30" as="geometry" />
        </mxCell>
        <mxCell id="V1qCbwQH9o08SnHCUsVQ-15" value="" style="endArrow=classic;html=1;rounded=0;" edge="1" parent="06OjPZyOfryMRRsR2foB-7">
          <mxGeometry width="50" height="50" relative="1" as="geometry">
            <mxPoint x="179" y="1340" as="sourcePoint" />
            <mxPoint x="289" y="1340.5" as="targetPoint" />
            <Array as="points">
              <mxPoint x="239" y="1340.5" />
            </Array>
          </mxGeometry>
        </mxCell>
        <mxCell id="V1qCbwQH9o08SnHCUsVQ-16" value="paiement acceptÃ©" style="edgeLabel;html=1;align=center;verticalAlign=middle;resizable=0;points=[];" vertex="1" connectable="0" parent="V1qCbwQH9o08SnHCUsVQ-15">
          <mxGeometry x="0.2557" y="1" relative="1" as="geometry">
            <mxPoint x="-19" y="-9" as="offset" />
          </mxGeometry>
        </mxCell>
        <mxCell id="V1qCbwQH9o08SnHCUsVQ-10" value="alt" style="shape=umlFrame;whiteSpace=wrap;html=1;pointerEvents=0;" vertex="1" parent="06OjPZyOfryMRRsR2foB-7">
          <mxGeometry x="169" y="1290" width="260" height="170" as="geometry" />
        </mxCell>
        <mxCell id="V1qCbwQH9o08SnHCUsVQ-21" value="" style="endArrow=none;dashed=1;html=1;rounded=0;entryX=0.51;entryY=0.93;entryDx=0;entryDy=0;entryPerimeter=0;" edge="1" parent="06OjPZyOfryMRRsR2foB-7">
          <mxGeometry width="50" height="50" relative="1" as="geometry">
            <mxPoint x="159" y="1353" as="sourcePoint" />
            <mxPoint x="419" y="1353.46" as="targetPoint" />
          </mxGeometry>
        </mxCell>
        <mxCell id="V1qCbwQH9o08SnHCUsVQ-22" value="paiement refusÃ©" style="html=1;verticalAlign=bottom;endArrow=block;curved=0;rounded=0;" edge="1" parent="06OjPZyOfryMRRsR2foB-7" target="06OjPZyOfryMRRsR2foB-81">
          <mxGeometry width="80" relative="1" as="geometry">
            <mxPoint x="179" y="1380" as="sourcePoint" />
            <mxPoint x="259" y="1380" as="targetPoint" />
          </mxGeometry>
        </mxCell>
        <mxCell id="V1qCbwQH9o08SnHCUsVQ-25" value="Passenger" style="shape=umlLifeline;perimeter=lifelinePerimeter;whiteSpace=wrap;html=1;container=1;dropTarget=0;collapsible=0;recursiveResize=0;outlineConnect=0;portConstraint=eastwest;newEdgeStyle={&quot;curved&quot;:0,&quot;rounded&quot;:0};" vertex="1" parent="06OjPZyOfryMRRsR2foB-7">
          <mxGeometry x="489" y="48" width="100" height="1532" as="geometry" />
        </mxCell>
        <mxCell id="V1qCbwQH9o08SnHCUsVQ-27" value="confirmation&lt;br&gt;rÃ©servation" style="html=1;verticalAlign=bottom;endArrow=block;curved=0;rounded=0;" edge="1" parent="06OjPZyOfryMRRsR2foB-7">
          <mxGeometry width="80" relative="1" as="geometry">
            <mxPoint x="179.5" y="1500" as="sourcePoint" />
            <mxPoint x="289" y="1500" as="targetPoint" />
          </mxGeometry>
        </mxCell>
        <mxCell id="V1qCbwQH9o08SnHCUsVQ-29" value="Envoi infos rÃ©servation" style="html=1;verticalAlign=bottom;endArrow=block;curved=0;rounded=0;" edge="1" parent="06OjPZyOfryMRRsR2foB-7" target="V1qCbwQH9o08SnHCUsVQ-25">
          <mxGeometry width="80" relative="1" as="geometry">
            <mxPoint x="179" y="1520" as="sourcePoint" />
            <mxPoint x="259" y="1520" as="targetPoint" />
          </mxGeometry>
        </mxCell>
        <mxCell id="dzN_O0dOmK8x91sWcJcT-156" value="" style="html=1;points=[[0,0,0,0,5],[0,1,0,0,-5],[1,0,0,0,5],[1,1,0,0,-5]];perimeter=orthogonalPerimeter;outlineConnect=0;targetShapes=umlLifeline;portConstraint=eastwest;newEdgeStyle={&quot;curved&quot;:0,&quot;rounded&quot;:0};" vertex="1" parent="1">
          <mxGeometry x="1258" y="825" width="10" height="40" as="geometry" />
        </mxCell>
        <mxCell id="dzN_O0dOmK8x91sWcJcT-157" value="" style="html=1;align=left;spacingLeft=2;endArrow=block;rounded=0;edgeStyle=orthogonalEdgeStyle;curved=0;rounded=0;entryX=1;entryY=1;entryDx=0;entryDy=-5;entryPerimeter=0;" edge="1" parent="1" target="dzN_O0dOmK8x91sWcJcT-156">
          <mxGeometry x="0.0038" relative="1" as="geometry">
            <mxPoint x="1275" y="840" as="sourcePoint" />
            <Array as="points">
              <mxPoint x="1305" y="840" />
              <mxPoint x="1305" y="860" />
            </Array>
            <mxPoint x="1280" y="895.037037037037" as="targetPoint" />
            <mxPoint as="offset" />
          </mxGeometry>
        </mxCell>
        <mxCell id="dzN_O0dOmK8x91sWcJcT-158" value="Creation de compte" style="edgeLabel;html=1;align=center;verticalAlign=middle;resizable=0;points=[];" connectable="0" vertex="1" parent="dzN_O0dOmK8x91sWcJcT-157">
          <mxGeometry x="-0.0464" relative="1" as="geometry">
            <mxPoint x="55" y="-1" as="offset" />
          </mxGeometry>
        </mxCell>
        <mxCell id="dzN_O0dOmK8x91sWcJcT-159" value="" style="endArrow=classic;html=1;rounded=0;" edge="1" parent="1">
          <mxGeometry width="50" height="50" relative="1" as="geometry">
            <mxPoint x="1260" y="870" as="sourcePoint" />
            <mxPoint x="1580" y="870" as="targetPoint" />
          </mxGeometry>
        </mxCell>
        <mxCell id="dzN_O0dOmK8x91sWcJcT-160" value="Envoie&amp;nbsp; creation du compte" style="edgeLabel;html=1;align=center;verticalAlign=middle;resizable=0;points=[];" connectable="0" vertex="1" parent="dzN_O0dOmK8x91sWcJcT-159">
          <mxGeometry x="-0.0449" y="2" relative="1" as="geometry">
            <mxPoint as="offset" />
          </mxGeometry>
        </mxCell>
        <mxCell id="dzN_O0dOmK8x91sWcJcT-161" value="" style="endArrow=none;html=1;rounded=0;startArrow=block;startFill=1;endFill=0;dashed=1;" edge="1" parent="1">
          <mxGeometry width="50" height="50" relative="1" as="geometry">
            <mxPoint x="1260" y="890" as="sourcePoint" />
            <mxPoint x="1580" y="890" as="targetPoint" />
          </mxGeometry>
        </mxCell>
        <mxCell id="dzN_O0dOmK8x91sWcJcT-162" value="Reponse Validation des donÃ©Ã©es" style="edgeLabel;html=1;align=center;verticalAlign=middle;resizable=0;points=[];" connectable="0" vertex="1" parent="dzN_O0dOmK8x91sWcJcT-161">
          <mxGeometry x="-0.0449" y="2" relative="1" as="geometry">
            <mxPoint as="offset" />
          </mxGeometry>
        </mxCell>
        <mxCell id="dzN_O0dOmK8x91sWcJcT-163" value="" style="endArrow=none;html=1;rounded=0;startArrow=block;startFill=1;endFill=0;dashed=1;" edge="1" parent="1">
          <mxGeometry width="50" height="50" relative="1" as="geometry">
            <mxPoint x="948" y="900" as="sourcePoint" />
            <mxPoint x="1268" y="900" as="targetPoint" />
          </mxGeometry>
        </mxCell>
        <mxCell id="dzN_O0dOmK8x91sWcJcT-164" value="Envoie un message Validation creation de compte" style="edgeLabel;html=1;align=center;verticalAlign=middle;resizable=0;points=[];" connectable="0" vertex="1" parent="dzN_O0dOmK8x91sWcJcT-163">
          <mxGeometry x="-0.0449" y="2" relative="1" as="geometry">
            <mxPoint as="offset" />
          </mxGeometry>
        </mxCell>
        <mxCell id="dzN_O0dOmK8x91sWcJcT-165" value="Alt" style="shape=umlFrame;whiteSpace=wrap;html=1;pointerEvents=0;" vertex="1" parent="1">
          <mxGeometry x="940" y="930" width="652" height="110" as="geometry" />
        </mxCell>
        <mxCell id="dzN_O0dOmK8x91sWcJcT-166" value="else if donnÃ©e pas unique" style="text;html=1;align=center;verticalAlign=middle;resizable=0;points=[];autosize=1;strokeColor=none;fillColor=none;" vertex="1" parent="1">
          <mxGeometry x="1015" y="930" width="160" height="30" as="geometry" />
        </mxCell>
        <mxCell id="dzN_O0dOmK8x91sWcJcT-167" value="" style="endArrow=classic;html=1;rounded=0;" edge="1" parent="1">
          <mxGeometry width="50" height="50" relative="1" as="geometry">
            <mxPoint x="1588" y="944.63" as="sourcePoint" />
            <mxPoint x="1268" y="944.63" as="targetPoint" />
            <Array as="points" />
          </mxGeometry>
        </mxCell>
        <mxCell id="dzN_O0dOmK8x91sWcJcT-168" value="Renvoie la reponse&amp;nbsp;" style="edgeLabel;html=1;align=center;verticalAlign=middle;resizable=0;points=[];" connectable="0" vertex="1" parent="dzN_O0dOmK8x91sWcJcT-167">
          <mxGeometry x="-0.0833" y="-2" relative="1" as="geometry">
            <mxPoint as="offset" />
          </mxGeometry>
        </mxCell>
        <mxCell id="V1qCbwQH9o08SnHCUsVQ-30" value="CREATE COMPANY FLIGHT" style="swimlane;whiteSpace=wrap;html=1;startSize=23;" vertex="1" parent="1">
          <mxGeometry x="40" y="1710" width="600" height="640" as="geometry" />
        </mxCell>
        <mxCell id="V1qCbwQH9o08SnHCUsVQ-34" value="User" style="shape=umlLifeline;perimeter=lifelinePerimeter;whiteSpace=wrap;html=1;container=1;dropTarget=0;collapsible=0;recursiveResize=0;outlineConnect=0;portConstraint=eastwest;newEdgeStyle={&quot;curved&quot;:0,&quot;rounded&quot;:0};" vertex="1" parent="V1qCbwQH9o08SnHCUsVQ-30">
          <mxGeometry x="30" y="50" width="100" height="590" as="geometry" />
        </mxCell>
        <mxCell id="V1qCbwQH9o08SnHCUsVQ-35" value="Company" style="shape=umlLifeline;perimeter=lifelinePerimeter;whiteSpace=wrap;html=1;container=1;dropTarget=0;collapsible=0;recursiveResize=0;outlineConnect=0;portConstraint=eastwest;newEdgeStyle={&quot;curved&quot;:0,&quot;rounded&quot;:0};" vertex="1" parent="V1qCbwQH9o08SnHCUsVQ-30">
          <mxGeometry x="230" y="50" width="100" height="590" as="geometry" />
        </mxCell>
        <mxCell id="V1qCbwQH9o08SnHCUsVQ-39" value="" style="html=1;points=[[0,0,0,0,5],[0,1,0,0,-5],[1,0,0,0,5],[1,1,0,0,-5]];perimeter=orthogonalPerimeter;outlineConnect=0;targetShapes=umlLifeline;portConstraint=eastwest;newEdgeStyle={&quot;curved&quot;:0,&quot;rounded&quot;:0};" vertex="1" parent="V1qCbwQH9o08SnHCUsVQ-35">
          <mxGeometry x="45" y="120" width="10" height="80" as="geometry" />
        </mxCell>
        <mxCell id="V1qCbwQH9o08SnHCUsVQ-42" value="" style="html=1;points=[[0,0,0,0,5],[0,1,0,0,-5],[1,0,0,0,5],[1,1,0,0,-5]];perimeter=orthogonalPerimeter;outlineConnect=0;targetShapes=umlLifeline;portConstraint=eastwest;newEdgeStyle={&quot;curved&quot;:0,&quot;rounded&quot;:0};" vertex="1" parent="V1qCbwQH9o08SnHCUsVQ-35">
          <mxGeometry x="50" y="160" width="10" height="20" as="geometry" />
        </mxCell>
        <mxCell id="V1qCbwQH9o08SnHCUsVQ-43" value="rempli le formulaire" style="html=1;align=left;spacingLeft=2;endArrow=block;rounded=0;edgeStyle=orthogonalEdgeStyle;curved=0;rounded=0;" edge="1" parent="V1qCbwQH9o08SnHCUsVQ-35" target="V1qCbwQH9o08SnHCUsVQ-42">
          <mxGeometry relative="1" as="geometry">
            <mxPoint x="55" y="140" as="sourcePoint" />
            <Array as="points">
              <mxPoint x="85" y="170" />
            </Array>
          </mxGeometry>
        </mxCell>
        <mxCell id="V1qCbwQH9o08SnHCUsVQ-37" value="REF" style="shape=umlFrame;whiteSpace=wrap;html=1;pointerEvents=0;" vertex="1" parent="V1qCbwQH9o08SnHCUsVQ-30">
          <mxGeometry x="30" y="120" width="300" height="30" as="geometry" />
        </mxCell>
        <mxCell id="V1qCbwQH9o08SnHCUsVQ-38" value="Connexion / Inscription" style="text;html=1;align=center;verticalAlign=middle;resizable=0;points=[];autosize=1;strokeColor=none;fillColor=none;" vertex="1" parent="V1qCbwQH9o08SnHCUsVQ-30">
          <mxGeometry x="105" y="120" width="150" height="30" as="geometry" />
        </mxCell>
        <mxCell id="V1qCbwQH9o08SnHCUsVQ-40" value="Envoi form crÃ©ation de vol" style="html=1;verticalAlign=bottom;endArrow=block;curved=0;rounded=0;entryX=1;entryY=0;entryDx=0;entryDy=5;" edge="1" parent="V1qCbwQH9o08SnHCUsVQ-30" source="V1qCbwQH9o08SnHCUsVQ-36" target="V1qCbwQH9o08SnHCUsVQ-39">
          <mxGeometry relative="1" as="geometry">
            <mxPoint x="355" y="175" as="sourcePoint" />
          </mxGeometry>
        </mxCell>
        <mxCell id="V1qCbwQH9o08SnHCUsVQ-46" value="Retourne form crÃ©ation de vol rempli" style="html=1;verticalAlign=bottom;endArrow=open;dashed=1;endSize=8;curved=0;rounded=0;exitX=1;exitY=1;exitDx=0;exitDy=-5;exitPerimeter=0;" edge="1" parent="V1qCbwQH9o08SnHCUsVQ-30" source="V1qCbwQH9o08SnHCUsVQ-39" target="V1qCbwQH9o08SnHCUsVQ-36">
          <mxGeometry relative="1" as="geometry">
            <mxPoint x="420" y="280" as="sourcePoint" />
            <mxPoint x="340" y="280" as="targetPoint" />
          </mxGeometry>
        </mxCell>
        <mxCell id="V1qCbwQH9o08SnHCUsVQ-49" value="ALT" style="shape=umlFrame;whiteSpace=wrap;html=1;pointerEvents=0;" vertex="1" parent="V1qCbwQH9o08SnHCUsVQ-30">
          <mxGeometry x="230" y="290" width="300" height="280" as="geometry" />
        </mxCell>
        <mxCell id="V1qCbwQH9o08SnHCUsVQ-50" value="(donnÃ©es validÃ©es)" style="text;html=1;align=center;verticalAlign=middle;resizable=0;points=[];autosize=1;strokeColor=none;fillColor=none;" vertex="1" parent="V1qCbwQH9o08SnHCUsVQ-30">
          <mxGeometry x="285" y="298" width="120" height="30" as="geometry" />
        </mxCell>
        <mxCell id="V1qCbwQH9o08SnHCUsVQ-51" value="Confirmation de la crÃ©ation du vol" style="html=1;verticalAlign=bottom;endArrow=block;curved=0;rounded=0;" edge="1" parent="V1qCbwQH9o08SnHCUsVQ-30">
          <mxGeometry x="-0.0026" width="80" relative="1" as="geometry">
            <mxPoint x="477.25" y="350" as="sourcePoint" />
            <mxPoint x="282.75" y="350" as="targetPoint" />
            <mxPoint as="offset" />
          </mxGeometry>
        </mxCell>
        <mxCell id="V1qCbwQH9o08SnHCUsVQ-52" value="" style="endArrow=none;dashed=1;html=1;rounded=0;exitX=-0.008;exitY=0.394;exitDx=0;exitDy=0;exitPerimeter=0;entryX=1.005;entryY=0.394;entryDx=0;entryDy=0;entryPerimeter=0;strokeWidth=2;" edge="1" parent="V1qCbwQH9o08SnHCUsVQ-30">
          <mxGeometry width="50" height="50" relative="1" as="geometry">
            <mxPoint x="227.5999999999999" y="361.8000000000002" as="sourcePoint" />
            <mxPoint x="531.5" y="361.8000000000002" as="targetPoint" />
          </mxGeometry>
        </mxCell>
        <mxCell id="V1qCbwQH9o08SnHCUsVQ-53" value="(donnÃ©es non validÃ©es)" style="text;html=1;align=center;verticalAlign=middle;resizable=0;points=[];autosize=1;strokeColor=none;fillColor=none;" vertex="1" parent="V1qCbwQH9o08SnHCUsVQ-30">
          <mxGeometry x="285" y="360" width="150" height="30" as="geometry" />
        </mxCell>
        <mxCell id="V1qCbwQH9o08SnHCUsVQ-54" value="LOOP" style="shape=umlFrame;whiteSpace=wrap;html=1;pointerEvents=0;" vertex="1" parent="V1qCbwQH9o08SnHCUsVQ-30">
          <mxGeometry x="240" y="390" width="280" height="140" as="geometry" />
        </mxCell>
        <mxCell id="V1qCbwQH9o08SnHCUsVQ-56" value="" style="html=1;points=[[0,0,0,0,5],[0,1,0,0,-5],[1,0,0,0,5],[1,1,0,0,-5]];perimeter=orthogonalPerimeter;outlineConnect=0;targetShapes=umlLifeline;portConstraint=eastwest;newEdgeStyle={&quot;curved&quot;:0,&quot;rounded&quot;:0};" vertex="1" parent="V1qCbwQH9o08SnHCUsVQ-30">
          <mxGeometry x="275" y="430" width="10" height="30" as="geometry" />
        </mxCell>
        <mxCell id="V1qCbwQH9o08SnHCUsVQ-57" value="indique l&#39;erreur" style="html=1;verticalAlign=bottom;endArrow=block;curved=0;rounded=0;entryX=1;entryY=0;entryDx=0;entryDy=5;" edge="1" parent="V1qCbwQH9o08SnHCUsVQ-30" source="V1qCbwQH9o08SnHCUsVQ-36" target="V1qCbwQH9o08SnHCUsVQ-56">
          <mxGeometry relative="1" as="geometry">
            <mxPoint x="355" y="435" as="sourcePoint" />
          </mxGeometry>
        </mxCell>
        <mxCell id="V1qCbwQH9o08SnHCUsVQ-58" value="Corrige l&#39;erreur" style="html=1;verticalAlign=bottom;endArrow=open;dashed=1;endSize=8;curved=0;rounded=0;exitX=1;exitY=1;exitDx=0;exitDy=-5;" edge="1" parent="V1qCbwQH9o08SnHCUsVQ-30" source="V1qCbwQH9o08SnHCUsVQ-56" target="V1qCbwQH9o08SnHCUsVQ-47">
          <mxGeometry relative="1" as="geometry">
            <mxPoint x="355" y="505" as="targetPoint" />
          </mxGeometry>
        </mxCell>
        <mxCell id="V1qCbwQH9o08SnHCUsVQ-36" value="Agency" style="shape=umlLifeline;perimeter=lifelinePerimeter;whiteSpace=wrap;html=1;container=1;dropTarget=0;collapsible=0;recursiveResize=0;outlineConnect=0;portConstraint=eastwest;newEdgeStyle={&quot;curved&quot;:0,&quot;rounded&quot;:0};" vertex="1" parent="V1qCbwQH9o08SnHCUsVQ-30">
          <mxGeometry x="430" y="50" width="100" height="590" as="geometry" />
        </mxCell>
        <mxCell id="V1qCbwQH9o08SnHCUsVQ-47" value="" style="html=1;points=[[0,0,0,0,5],[0,1,0,0,-5],[1,0,0,0,5],[1,1,0,0,-5]];perimeter=orthogonalPerimeter;outlineConnect=0;targetShapes=umlLifeline;portConstraint=eastwest;newEdgeStyle={&quot;curved&quot;:0,&quot;rounded&quot;:0};" vertex="1" parent="V1qCbwQH9o08SnHCUsVQ-36">
          <mxGeometry x="44" y="217" width="10" height="283" as="geometry" />
        </mxCell>
        <mxCell id="V1qCbwQH9o08SnHCUsVQ-48" value="VÃ©rification&lt;br&gt;des&lt;br&gt;donnÃ©es" style="html=1;align=left;spacingLeft=2;endArrow=block;rounded=0;edgeStyle=orthogonalEdgeStyle;curved=0;rounded=0;" edge="1" parent="V1qCbwQH9o08SnHCUsVQ-36" target="V1qCbwQH9o08SnHCUsVQ-47">
          <mxGeometry relative="1" as="geometry">
            <mxPoint x="49" y="197" as="sourcePoint" />
            <Array as="points">
              <mxPoint x="79" y="227" />
            </Array>
          </mxGeometry>
        </mxCell>
        <mxCell id="V1qCbwQH9o08SnHCUsVQ-60" value="" style="html=1;points=[[0,0,0,0,5],[0,1,0,0,-5],[1,0,0,0,5],[1,1,0,0,-5]];perimeter=orthogonalPerimeter;outlineConnect=0;targetShapes=umlLifeline;portConstraint=eastwest;newEdgeStyle={&quot;curved&quot;:0,&quot;rounded&quot;:0};" vertex="1" parent="V1qCbwQH9o08SnHCUsVQ-36">
          <mxGeometry x="39" y="450" width="10" height="20" as="geometry" />
        </mxCell>
        <mxCell id="V1qCbwQH9o08SnHCUsVQ-61" value="VÃ©rification" style="html=1;align=left;spacingLeft=2;endArrow=block;rounded=0;edgeStyle=orthogonalEdgeStyle;curved=0;rounded=0;" edge="1" parent="V1qCbwQH9o08SnHCUsVQ-36" target="V1qCbwQH9o08SnHCUsVQ-60">
          <mxGeometry relative="1" as="geometry">
            <mxPoint x="45" y="440" as="sourcePoint" />
            <Array as="points">
              <mxPoint x="75" y="470" />
            </Array>
          </mxGeometry>
        </mxCell>
        <mxCell id="V1qCbwQH9o08SnHCUsVQ-63" value="" style="html=1;points=[[0,0,0,0,5],[0,1,0,0,-5],[1,0,0,0,5],[1,1,0,0,-5]];perimeter=orthogonalPerimeter;outlineConnect=0;targetShapes=umlLifeline;portConstraint=eastwest;newEdgeStyle={&quot;curved&quot;:0,&quot;rounded&quot;:0};" vertex="1" parent="V1qCbwQH9o08SnHCUsVQ-36">
          <mxGeometry x="44" y="550" width="10" height="30" as="geometry" />
        </mxCell>
        <mxCell id="V1qCbwQH9o08SnHCUsVQ-64" value="Vol enregistrÃ©&amp;nbsp;" style="html=1;align=left;spacingLeft=2;endArrow=block;rounded=0;edgeStyle=orthogonalEdgeStyle;curved=0;rounded=0;" edge="1" parent="V1qCbwQH9o08SnHCUsVQ-36" target="V1qCbwQH9o08SnHCUsVQ-63">
          <mxGeometry relative="1" as="geometry">
            <mxPoint x="49" y="530" as="sourcePoint" />
            <Array as="points">
              <mxPoint x="79" y="560" />
            </Array>
          </mxGeometry>
        </mxCell>
        <mxCell id="V1qCbwQH9o08SnHCUsVQ-59" value="Envoi du formulaire corrigÃ©" style="html=1;verticalAlign=bottom;endArrow=block;curved=0;rounded=0;" edge="1" parent="V1qCbwQH9o08SnHCUsVQ-30">
          <mxGeometry width="80" relative="1" as="geometry">
            <mxPoint x="280" y="490" as="sourcePoint" />
            <mxPoint x="472.25" y="490" as="targetPoint" />
          </mxGeometry>
        </mxCell>
        <mxCell id="V1qCbwQH9o08SnHCUsVQ-79" value="" style="html=1;verticalAlign=bottom;endArrow=open;dashed=1;endSize=8;curved=0;rounded=0;" edge="1" parent="V1qCbwQH9o08SnHCUsVQ-30">
          <mxGeometry relative="1" as="geometry">
            <mxPoint x="471" y="549" as="sourcePoint" />
            <mxPoint x="280.5" y="549" as="targetPoint" />
          </mxGeometry>
        </mxCell>
        <mxCell id="dzN_O0dOmK8x91sWcJcT-169" value="" style="endArrow=classic;html=1;rounded=0;" edge="1" parent="1">
          <mxGeometry width="50" height="50" relative="1" as="geometry">
            <mxPoint x="1260" y="970" as="sourcePoint" />
            <mxPoint x="950" y="970" as="targetPoint" />
            <Array as="points" />
          </mxGeometry>
        </mxCell>
        <mxCell id="dzN_O0dOmK8x91sWcJcT-172" value="Email /nom d&#39;utilisateur non unique (compte existant)" style="edgeLabel;html=1;align=center;verticalAlign=middle;resizable=0;points=[];" connectable="0" vertex="1" parent="dzN_O0dOmK8x91sWcJcT-169">
          <mxGeometry x="0.0368" relative="1" as="geometry">
            <mxPoint as="offset" />
          </mxGeometry>
        </mxCell>
        <mxCell id="dzN_O0dOmK8x91sWcJcT-173" value="Loop" style="shape=umlFrame;whiteSpace=wrap;html=1;pointerEvents=0;" vertex="1" parent="1">
          <mxGeometry x="940" y="780" width="662" height="335" as="geometry" />
        </mxCell>
        <mxCell id="dzN_O0dOmK8x91sWcJcT-174" value="While compte == donnÃ©e unique" style="text;html=1;align=center;verticalAlign=middle;resizable=0;points=[];autosize=1;strokeColor=none;fillColor=none;" vertex="1" parent="1">
          <mxGeometry x="1003" y="780" width="200" height="30" as="geometry" />
        </mxCell>
        <mxCell id="dzN_O0dOmK8x91sWcJcT-176" value="" style="endArrow=classic;html=1;rounded=0;" edge="1" parent="1">
          <mxGeometry width="50" height="50" relative="1" as="geometry">
            <mxPoint x="948" y="1010" as="sourcePoint" />
            <mxPoint x="1268" y="1010" as="targetPoint" />
          </mxGeometry>
        </mxCell>
        <mxCell id="dzN_O0dOmK8x91sWcJcT-177" value="Modification des champs" style="edgeLabel;html=1;align=center;verticalAlign=middle;resizable=0;points=[];" connectable="0" vertex="1" parent="dzN_O0dOmK8x91sWcJcT-176">
          <mxGeometry x="-0.0571" y="-2" relative="1" as="geometry">
            <mxPoint x="7" y="-2" as="offset" />
          </mxGeometry>
        </mxCell>
        <mxCell id="dzN_O0dOmK8x91sWcJcT-178" value="" style="endArrow=classic;html=1;rounded=0;" edge="1" parent="1">
          <mxGeometry width="50" height="50" relative="1" as="geometry">
            <mxPoint x="1260" y="990" as="sourcePoint" />
            <mxPoint x="950" y="990" as="targetPoint" />
          </mxGeometry>
        </mxCell>
        <mxCell id="dzN_O0dOmK8x91sWcJcT-179" value="Renvoie Formulaire Ã  modifier" style="edgeLabel;html=1;align=center;verticalAlign=middle;resizable=0;points=[];" connectable="0" vertex="1" parent="dzN_O0dOmK8x91sWcJcT-178">
          <mxGeometry x="-0.1641" relative="1" as="geometry">
            <mxPoint as="offset" />
          </mxGeometry>
        </mxCell>
        <mxCell id="dzN_O0dOmK8x91sWcJcT-180" value="Actor" style="shape=umlActor;verticalLabelPosition=bottom;verticalAlign=top;html=1;outlineConnect=0;" vertex="1" parent="1">
          <mxGeometry x="930" y="1200" width="30" height="60" as="geometry" />
        </mxCell>
        <mxCell id="dzN_O0dOmK8x91sWcJcT-181" value="Application" style="rounded=0;whiteSpace=wrap;html=1;" vertex="1" parent="1">
          <mxGeometry x="1206" y="1200" width="120" height="60" as="geometry" />
        </mxCell>
        <mxCell id="dzN_O0dOmK8x91sWcJcT-182" value="Base de donnÃ©es" style="rounded=0;whiteSpace=wrap;html=1;" vertex="1" parent="1">
          <mxGeometry x="1525" y="1200" width="120" height="60" as="geometry" />
        </mxCell>
        <mxCell id="dzN_O0dOmK8x91sWcJcT-183" style="edgeStyle=orthogonalEdgeStyle;rounded=0;orthogonalLoop=1;jettySize=auto;html=1;endArrow=none;endFill=0;dashed=1;" edge="1" parent="1">
          <mxGeometry relative="1" as="geometry">
            <mxPoint x="945" y="1810" as="targetPoint" />
            <mxPoint x="944.4434782608699" y="1280" as="sourcePoint" />
          </mxGeometry>
        </mxCell>
        <mxCell id="dzN_O0dOmK8x91sWcJcT-184" style="edgeStyle=orthogonalEdgeStyle;rounded=0;orthogonalLoop=1;jettySize=auto;html=1;endArrow=none;endFill=0;dashed=1;" edge="1" parent="1">
          <mxGeometry relative="1" as="geometry">
            <mxPoint x="1263" y="1800" as="targetPoint" />
            <mxPoint x="1262.44347826087" y="1260" as="sourcePoint" />
          </mxGeometry>
        </mxCell>
        <mxCell id="dzN_O0dOmK8x91sWcJcT-185" style="edgeStyle=orthogonalEdgeStyle;rounded=0;orthogonalLoop=1;jettySize=auto;html=1;endArrow=none;endFill=0;dashed=1;" edge="1" parent="1">
          <mxGeometry relative="1" as="geometry">
            <mxPoint x="1584.83" y="1710" as="targetPoint" />
            <mxPoint x="1584.44347826087" y="1260" as="sourcePoint" />
          </mxGeometry>
        </mxCell>
        <mxCell id="V1qCbwQH9o08SnHCUsVQ-62" value="(tant que les donnÃ©es sont non validÃ©es)" style="text;html=1;align=center;verticalAlign=middle;resizable=0;points=[];autosize=1;strokeColor=none;fillColor=none;" vertex="1" parent="1">
          <mxGeometry x="308" y="2098" width="240" height="30" as="geometry" />
        </mxCell>
        <mxCell id="dzN_O0dOmK8x91sWcJcT-186" value="REF" style="shape=umlFrame;whiteSpace=wrap;html=1;pointerEvents=0;" vertex="1" parent="1">
          <mxGeometry x="948" y="1300" width="312" height="40" as="geometry" />
        </mxCell>
        <mxCell id="dzN_O0dOmK8x91sWcJcT-187" value="CONNEXION" style="text;html=1;align=center;verticalAlign=middle;resizable=0;points=[];autosize=1;strokeColor=none;fillColor=none;" vertex="1" parent="1">
          <mxGeometry x="1060" y="1305" width="100" height="30" as="geometry" />
        </mxCell>
        <mxCell id="dzN_O0dOmK8x91sWcJcT-188" value="" style="endArrow=classic;html=1;rounded=0;" edge="1" parent="1">
          <mxGeometry width="50" height="50" relative="1" as="geometry">
            <mxPoint x="950" y="1350" as="sourcePoint" />
            <mxPoint x="1260" y="1350" as="targetPoint" />
          </mxGeometry>
        </mxCell>
        <mxCell id="dzN_O0dOmK8x91sWcJcT-189" value="&amp;nbsp;Clique sur Modifier le compte" style="edgeLabel;html=1;align=center;verticalAlign=middle;resizable=0;points=[];" connectable="0" vertex="1" parent="dzN_O0dOmK8x91sWcJcT-188">
          <mxGeometry x="-0.0129" y="-2" relative="1" as="geometry">
            <mxPoint as="offset" />
          </mxGeometry>
        </mxCell>
        <mxCell id="dzN_O0dOmK8x91sWcJcT-190" value="" style="endArrow=none;html=1;rounded=0;endFill=0;startArrow=classicThin;startFill=1;" edge="1" parent="1">
          <mxGeometry width="50" height="50" relative="1" as="geometry">
            <mxPoint x="948" y="1410" as="sourcePoint" />
            <mxPoint x="1258" y="1410" as="targetPoint" />
          </mxGeometry>
        </mxCell>
        <mxCell id="dzN_O0dOmK8x91sWcJcT-191" value="Affiche le formulaire de modification" style="edgeLabel;html=1;align=center;verticalAlign=middle;resizable=0;points=[];" connectable="0" vertex="1" parent="dzN_O0dOmK8x91sWcJcT-190">
          <mxGeometry x="-0.0129" y="-2" relative="1" as="geometry">
            <mxPoint as="offset" />
          </mxGeometry>
        </mxCell>
        <mxCell id="dzN_O0dOmK8x91sWcJcT-192" value="" style="endArrow=classic;html=1;rounded=0;" edge="1" parent="1">
          <mxGeometry width="50" height="50" relative="1" as="geometry">
            <mxPoint x="950" y="1510" as="sourcePoint" />
            <mxPoint x="1260" y="1510" as="targetPoint" />
          </mxGeometry>
        </mxCell>
        <mxCell id="dzN_O0dOmK8x91sWcJcT-193" value="Modifie et soumet le formulaire" style="edgeLabel;html=1;align=center;verticalAlign=middle;resizable=0;points=[];" connectable="0" vertex="1" parent="dzN_O0dOmK8x91sWcJcT-192">
          <mxGeometry x="-0.0129" y="-2" relative="1" as="geometry">
            <mxPoint as="offset" />
          </mxGeometry>
        </mxCell>
        <mxCell id="dzN_O0dOmK8x91sWcJcT-196" value="" style="html=1;points=[[0,0,0,0,5],[0,1,0,0,-5],[1,0,0,0,5],[1,1,0,0,-5]];perimeter=orthogonalPerimeter;outlineConnect=0;targetShapes=umlLifeline;portConstraint=eastwest;newEdgeStyle={&quot;curved&quot;:0,&quot;rounded&quot;:0};" vertex="1" parent="1">
          <mxGeometry x="1258" y="1530" width="10" height="40" as="geometry" />
        </mxCell>
        <mxCell id="dzN_O0dOmK8x91sWcJcT-197" value="Valide&amp;nbsp; les modifications" style="html=1;align=left;spacingLeft=2;endArrow=block;rounded=0;edgeStyle=orthogonalEdgeStyle;curved=0;rounded=0;" edge="1" parent="1" target="dzN_O0dOmK8x91sWcJcT-196">
          <mxGeometry x="-0.0018" relative="1" as="geometry">
            <mxPoint x="1263" y="1480" as="sourcePoint" />
            <Array as="points">
              <mxPoint x="1263" y="1520" />
              <mxPoint x="1293" y="1520" />
              <mxPoint x="1293" y="1550" />
            </Array>
            <mxPoint as="offset" />
          </mxGeometry>
        </mxCell>
        <mxCell id="dzN_O0dOmK8x91sWcJcT-198" value="" style="endArrow=classic;html=1;rounded=0;" edge="1" parent="1">
          <mxGeometry width="50" height="50" relative="1" as="geometry">
            <mxPoint x="1270" y="1560" as="sourcePoint" />
            <mxPoint x="1580" y="1560" as="targetPoint" />
          </mxGeometry>
        </mxCell>
        <mxCell id="dzN_O0dOmK8x91sWcJcT-199" value="Demande de mise a jours modif" style="edgeLabel;html=1;align=center;verticalAlign=middle;resizable=0;points=[];" connectable="0" vertex="1" parent="dzN_O0dOmK8x91sWcJcT-198">
          <mxGeometry x="-0.1573" y="1" relative="1" as="geometry">
            <mxPoint as="offset" />
          </mxGeometry>
        </mxCell>
        <mxCell id="dzN_O0dOmK8x91sWcJcT-200" value="" style="html=1;points=[[0,0,0,0,5],[0,1,0,0,-5],[1,0,0,0,5],[1,1,0,0,-5]];perimeter=orthogonalPerimeter;outlineConnect=0;targetShapes=umlLifeline;portConstraint=eastwest;newEdgeStyle={&quot;curved&quot;:0,&quot;rounded&quot;:0};" vertex="1" parent="1">
          <mxGeometry x="1580" y="1560" width="10" height="40" as="geometry" />
        </mxCell>
        <mxCell id="dzN_O0dOmK8x91sWcJcT-201" value="Application&amp;nbsp;&lt;br&gt;des&amp;nbsp;&lt;br&gt;modifications" style="html=1;align=left;spacingLeft=2;endArrow=block;rounded=0;edgeStyle=orthogonalEdgeStyle;curved=0;rounded=0;" edge="1" parent="1" target="dzN_O0dOmK8x91sWcJcT-200">
          <mxGeometry x="0.0019" relative="1" as="geometry">
            <mxPoint x="1585" y="1540" as="sourcePoint" />
            <Array as="points">
              <mxPoint x="1615" y="1570" />
            </Array>
            <mxPoint as="offset" />
          </mxGeometry>
        </mxCell>
        <mxCell id="dzN_O0dOmK8x91sWcJcT-203" value="" style="endArrow=none;html=1;rounded=0;endFill=0;dashed=1;dashPattern=8 8;startArrow=openThin;startFill=0;" edge="1" parent="1">
          <mxGeometry width="50" height="50" relative="1" as="geometry">
            <mxPoint x="1268" y="1590" as="sourcePoint" />
            <mxPoint x="1578" y="1590" as="targetPoint" />
          </mxGeometry>
        </mxCell>
        <mxCell id="dzN_O0dOmK8x91sWcJcT-204" value="Retour de validation" style="edgeLabel;html=1;align=center;verticalAlign=middle;resizable=0;points=[];" connectable="0" vertex="1" parent="dzN_O0dOmK8x91sWcJcT-203">
          <mxGeometry x="-0.1573" y="1" relative="1" as="geometry">
            <mxPoint as="offset" />
          </mxGeometry>
        </mxCell>
        <mxCell id="V1qCbwQH9o08SnHCUsVQ-65" value="ADD FLIGHT" style="swimlane;whiteSpace=wrap;html=1;" vertex="1" parent="1">
          <mxGeometry x="40" y="2380" width="600" height="820" as="geometry" />
        </mxCell>
        <mxCell id="V1qCbwQH9o08SnHCUsVQ-70" value="App" style="shape=umlLifeline;perimeter=lifelinePerimeter;whiteSpace=wrap;html=1;container=1;dropTarget=0;collapsible=0;recursiveResize=0;outlineConnect=0;portConstraint=eastwest;newEdgeStyle={&quot;curved&quot;:0,&quot;rounded&quot;:0};" vertex="1" parent="V1qCbwQH9o08SnHCUsVQ-65">
          <mxGeometry x="430" y="60" width="100" height="760" as="geometry" />
        </mxCell>
        <mxCell id="V1qCbwQH9o08SnHCUsVQ-67" value="User" style="shape=umlLifeline;perimeter=lifelinePerimeter;whiteSpace=wrap;html=1;container=1;dropTarget=0;collapsible=0;recursiveResize=0;outlineConnect=0;portConstraint=eastwest;newEdgeStyle={&quot;curved&quot;:0,&quot;rounded&quot;:0};" vertex="1" parent="V1qCbwQH9o08SnHCUsVQ-65">
          <mxGeometry x="30" y="60" width="100" height="760" as="geometry" />
        </mxCell>
        <mxCell id="V1qCbwQH9o08SnHCUsVQ-68" value="Agency" style="shape=umlLifeline;perimeter=lifelinePerimeter;whiteSpace=wrap;html=1;container=1;dropTarget=0;collapsible=0;recursiveResize=0;outlineConnect=0;portConstraint=eastwest;newEdgeStyle={&quot;curved&quot;:0,&quot;rounded&quot;:0};" vertex="1" parent="V1qCbwQH9o08SnHCUsVQ-65">
          <mxGeometry x="230" y="60" width="100" height="760" as="geometry" />
        </mxCell>
        <mxCell id="V1qCbwQH9o08SnHCUsVQ-73" value="" style="html=1;points=[[0,0,0,0,5],[0,1,0,0,-5],[1,0,0,0,5],[1,1,0,0,-5]];perimeter=orthogonalPerimeter;outlineConnect=0;targetShapes=umlLifeline;portConstraint=eastwest;newEdgeStyle={&quot;curved&quot;:0,&quot;rounded&quot;:0};" vertex="1" parent="V1qCbwQH9o08SnHCUsVQ-68">
          <mxGeometry x="45" y="110" width="10" height="240" as="geometry" />
        </mxCell>
        <mxCell id="V1qCbwQH9o08SnHCUsVQ-85" value="" style="html=1;points=[[0,0,0,0,5],[0,1,0,0,-5],[1,0,0,0,5],[1,1,0,0,-5]];perimeter=orthogonalPerimeter;outlineConnect=0;targetShapes=umlLifeline;portConstraint=eastwest;newEdgeStyle={&quot;curved&quot;:0,&quot;rounded&quot;:0};" vertex="1" parent="V1qCbwQH9o08SnHCUsVQ-68">
          <mxGeometry x="49" y="150" width="10" height="20" as="geometry" />
        </mxCell>
        <mxCell id="V1qCbwQH9o08SnHCUsVQ-86" value="RÃ©cupÃ¨re infos vol" style="html=1;align=left;spacingLeft=2;endArrow=block;rounded=0;edgeStyle=orthogonalEdgeStyle;curved=0;rounded=0;" edge="1" parent="V1qCbwQH9o08SnHCUsVQ-68" target="V1qCbwQH9o08SnHCUsVQ-85">
          <mxGeometry relative="1" as="geometry">
            <mxPoint x="54" y="130" as="sourcePoint" />
            <Array as="points">
              <mxPoint x="84" y="160" />
            </Array>
          </mxGeometry>
        </mxCell>
        <mxCell id="V1qCbwQH9o08SnHCUsVQ-87" value="" style="html=1;points=[[0,0,0,0,5],[0,1,0,0,-5],[1,0,0,0,5],[1,1,0,0,-5]];perimeter=orthogonalPerimeter;outlineConnect=0;targetShapes=umlLifeline;portConstraint=eastwest;newEdgeStyle={&quot;curved&quot;:0,&quot;rounded&quot;:0};" vertex="1" parent="V1qCbwQH9o08SnHCUsVQ-68">
          <mxGeometry x="49" y="200" width="10" height="20" as="geometry" />
        </mxCell>
        <mxCell id="V1qCbwQH9o08SnHCUsVQ-88" value="Indique la compagnie" style="html=1;align=left;spacingLeft=2;endArrow=block;rounded=0;edgeStyle=orthogonalEdgeStyle;curved=0;rounded=0;" edge="1" parent="V1qCbwQH9o08SnHCUsVQ-68" target="V1qCbwQH9o08SnHCUsVQ-87">
          <mxGeometry relative="1" as="geometry">
            <mxPoint x="54" y="180" as="sourcePoint" />
            <Array as="points">
              <mxPoint x="84" y="210" />
            </Array>
          </mxGeometry>
        </mxCell>
        <mxCell id="V1qCbwQH9o08SnHCUsVQ-89" value="" style="html=1;points=[[0,0,0,0,5],[0,1,0,0,-5],[1,0,0,0,5],[1,1,0,0,-5]];perimeter=orthogonalPerimeter;outlineConnect=0;targetShapes=umlLifeline;portConstraint=eastwest;newEdgeStyle={&quot;curved&quot;:0,&quot;rounded&quot;:0};" vertex="1" parent="V1qCbwQH9o08SnHCUsVQ-68">
          <mxGeometry x="49" y="250" width="10" height="20" as="geometry" />
        </mxCell>
        <mxCell id="V1qCbwQH9o08SnHCUsVQ-90" value="Indique le vol Ã  ajouter" style="html=1;align=left;spacingLeft=2;endArrow=block;rounded=0;edgeStyle=orthogonalEdgeStyle;curved=0;rounded=0;" edge="1" parent="V1qCbwQH9o08SnHCUsVQ-68" target="V1qCbwQH9o08SnHCUsVQ-89">
          <mxGeometry relative="1" as="geometry">
            <mxPoint x="54" y="230" as="sourcePoint" />
            <Array as="points">
              <mxPoint x="84" y="260" />
            </Array>
          </mxGeometry>
        </mxCell>
        <mxCell id="V1qCbwQH9o08SnHCUsVQ-91" value="" style="html=1;points=[[0,0,0,0,5],[0,1,0,0,-5],[1,0,0,0,5],[1,1,0,0,-5]];perimeter=orthogonalPerimeter;outlineConnect=0;targetShapes=umlLifeline;portConstraint=eastwest;newEdgeStyle={&quot;curved&quot;:0,&quot;rounded&quot;:0};" vertex="1" parent="V1qCbwQH9o08SnHCUsVQ-68">
          <mxGeometry x="49" y="300" width="10" height="30" as="geometry" />
        </mxCell>
        <mxCell id="V1qCbwQH9o08SnHCUsVQ-92" value="Rempli le formulaire" style="html=1;align=left;spacingLeft=2;endArrow=block;rounded=0;edgeStyle=orthogonalEdgeStyle;curved=0;rounded=0;" edge="1" parent="V1qCbwQH9o08SnHCUsVQ-68" target="V1qCbwQH9o08SnHCUsVQ-91">
          <mxGeometry relative="1" as="geometry">
            <mxPoint x="54" y="280" as="sourcePoint" />
            <Array as="points">
              <mxPoint x="84" y="310" />
            </Array>
          </mxGeometry>
        </mxCell>
        <mxCell id="V1qCbwQH9o08SnHCUsVQ-93" value="" style="html=1;verticalAlign=bottom;endArrow=open;dashed=1;endSize=8;curved=0;rounded=0;exitX=1;exitY=1;exitDx=0;exitDy=-5;exitPerimeter=0;" edge="1" parent="V1qCbwQH9o08SnHCUsVQ-68">
          <mxGeometry relative="1" as="geometry">
            <mxPoint x="57.39999999999998" y="350" as="sourcePoint" />
            <mxPoint x="252.39999999999998" y="350" as="targetPoint" />
          </mxGeometry>
        </mxCell>
        <mxCell id="V1qCbwQH9o08SnHCUsVQ-114" value="Retourne formulaire ajout de vol" style="edgeLabel;html=1;align=center;verticalAlign=middle;resizable=0;points=[];" connectable="0" vertex="1" parent="V1qCbwQH9o08SnHCUsVQ-93">
          <mxGeometry x="-0.2656" y="1" relative="1" as="geometry">
            <mxPoint x="26" y="-9" as="offset" />
          </mxGeometry>
        </mxCell>
        <mxCell id="V1qCbwQH9o08SnHCUsVQ-94" value="ALT" style="shape=umlFrame;whiteSpace=wrap;html=1;pointerEvents=0;" vertex="1" parent="V1qCbwQH9o08SnHCUsVQ-68">
          <mxGeometry x="2.3999999999999773" y="395" width="300" height="280" as="geometry" />
        </mxCell>
        <mxCell id="V1qCbwQH9o08SnHCUsVQ-95" value="(donnÃ©es validÃ©es)" style="text;html=1;align=center;verticalAlign=middle;resizable=0;points=[];autosize=1;strokeColor=none;fillColor=none;" vertex="1" parent="V1qCbwQH9o08SnHCUsVQ-68">
          <mxGeometry x="57.39999999999998" y="403" width="120" height="30" as="geometry" />
        </mxCell>
        <mxCell id="V1qCbwQH9o08SnHCUsVQ-96" value="Confirmation de l&#39;ajout du vol" style="html=1;verticalAlign=bottom;endArrow=block;curved=0;rounded=0;" edge="1" parent="V1qCbwQH9o08SnHCUsVQ-68">
          <mxGeometry x="-0.0026" width="80" relative="1" as="geometry">
            <mxPoint x="249.64999999999998" y="455" as="sourcePoint" />
            <mxPoint x="55.14999999999998" y="455" as="targetPoint" />
            <mxPoint as="offset" />
          </mxGeometry>
        </mxCell>
        <mxCell id="V1qCbwQH9o08SnHCUsVQ-97" value="" style="endArrow=none;dashed=1;html=1;rounded=0;exitX=-0.008;exitY=0.394;exitDx=0;exitDy=0;exitPerimeter=0;entryX=1.005;entryY=0.394;entryDx=0;entryDy=0;entryPerimeter=0;strokeWidth=2;" edge="1" parent="V1qCbwQH9o08SnHCUsVQ-68">
          <mxGeometry width="50" height="50" relative="1" as="geometry">
            <mxPoint x="-1.1368683772161603e-13" y="466.8000000000002" as="sourcePoint" />
            <mxPoint x="303.9" y="466.8000000000002" as="targetPoint" />
          </mxGeometry>
        </mxCell>
        <mxCell id="V1qCbwQH9o08SnHCUsVQ-98" value="(donnÃ©es non validÃ©es)" style="text;html=1;align=center;verticalAlign=middle;resizable=0;points=[];autosize=1;strokeColor=none;fillColor=none;" vertex="1" parent="V1qCbwQH9o08SnHCUsVQ-68">
          <mxGeometry x="57.39999999999998" y="465" width="150" height="30" as="geometry" />
        </mxCell>
        <mxCell id="V1qCbwQH9o08SnHCUsVQ-99" value="LOOP" style="shape=umlFrame;whiteSpace=wrap;html=1;pointerEvents=0;" vertex="1" parent="V1qCbwQH9o08SnHCUsVQ-68">
          <mxGeometry x="12.399999999999977" y="495" width="280" height="140" as="geometry" />
        </mxCell>
        <mxCell id="V1qCbwQH9o08SnHCUsVQ-100" value="" style="html=1;points=[[0,0,0,0,5],[0,1,0,0,-5],[1,0,0,0,5],[1,1,0,0,-5]];perimeter=orthogonalPerimeter;outlineConnect=0;targetShapes=umlLifeline;portConstraint=eastwest;newEdgeStyle={&quot;curved&quot;:0,&quot;rounded&quot;:0};" vertex="1" parent="V1qCbwQH9o08SnHCUsVQ-68">
          <mxGeometry x="47.39999999999998" y="535" width="10" height="30" as="geometry" />
        </mxCell>
        <mxCell id="V1qCbwQH9o08SnHCUsVQ-101" value="indique l&#39;erreur" style="html=1;verticalAlign=bottom;endArrow=block;curved=0;rounded=0;entryX=1;entryY=0;entryDx=0;entryDy=5;" edge="1" parent="V1qCbwQH9o08SnHCUsVQ-68" target="V1qCbwQH9o08SnHCUsVQ-100">
          <mxGeometry relative="1" as="geometry">
            <mxPoint x="252.39999999999998" y="540" as="sourcePoint" />
          </mxGeometry>
        </mxCell>
        <mxCell id="V1qCbwQH9o08SnHCUsVQ-102" value="Corrige l&#39;erreur" style="html=1;verticalAlign=bottom;endArrow=open;dashed=1;endSize=8;curved=0;rounded=0;exitX=1;exitY=1;exitDx=0;exitDy=-5;" edge="1" parent="V1qCbwQH9o08SnHCUsVQ-68" source="V1qCbwQH9o08SnHCUsVQ-100" target="V1qCbwQH9o08SnHCUsVQ-103">
          <mxGeometry relative="1" as="geometry">
            <mxPoint x="127.39999999999998" y="610" as="targetPoint" />
          </mxGeometry>
        </mxCell>
        <mxCell id="V1qCbwQH9o08SnHCUsVQ-103" value="" style="html=1;points=[[0,0,0,0,5],[0,1,0,0,-5],[1,0,0,0,5],[1,1,0,0,-5]];perimeter=orthogonalPerimeter;outlineConnect=0;targetShapes=umlLifeline;portConstraint=eastwest;newEdgeStyle={&quot;curved&quot;:0,&quot;rounded&quot;:0};" vertex="1" parent="V1qCbwQH9o08SnHCUsVQ-68">
          <mxGeometry x="246.39999999999998" y="372" width="10" height="283" as="geometry" />
        </mxCell>
        <mxCell id="V1qCbwQH9o08SnHCUsVQ-104" value="VÃ©rification&lt;br&gt;des&lt;br&gt;donnÃ©es" style="html=1;align=left;spacingLeft=2;endArrow=block;rounded=0;edgeStyle=orthogonalEdgeStyle;curved=0;rounded=0;" edge="1" parent="V1qCbwQH9o08SnHCUsVQ-68" target="V1qCbwQH9o08SnHCUsVQ-103">
          <mxGeometry relative="1" as="geometry">
            <mxPoint x="251.39999999999998" y="352" as="sourcePoint" />
            <Array as="points">
              <mxPoint x="281.4" y="382" />
            </Array>
          </mxGeometry>
        </mxCell>
        <mxCell id="V1qCbwQH9o08SnHCUsVQ-105" value="" style="html=1;points=[[0,0,0,0,5],[0,1,0,0,-5],[1,0,0,0,5],[1,1,0,0,-5]];perimeter=orthogonalPerimeter;outlineConnect=0;targetShapes=umlLifeline;portConstraint=eastwest;newEdgeStyle={&quot;curved&quot;:0,&quot;rounded&quot;:0};" vertex="1" parent="V1qCbwQH9o08SnHCUsVQ-68">
          <mxGeometry x="241.39999999999998" y="605" width="10" height="20" as="geometry" />
        </mxCell>
        <mxCell id="V1qCbwQH9o08SnHCUsVQ-106" value="VÃ©rification" style="html=1;align=left;spacingLeft=2;endArrow=block;rounded=0;edgeStyle=orthogonalEdgeStyle;curved=0;rounded=0;" edge="1" parent="V1qCbwQH9o08SnHCUsVQ-68" target="V1qCbwQH9o08SnHCUsVQ-105">
          <mxGeometry relative="1" as="geometry">
            <mxPoint x="247.39999999999998" y="595" as="sourcePoint" />
            <Array as="points">
              <mxPoint x="277.4" y="625" />
            </Array>
          </mxGeometry>
        </mxCell>
        <mxCell id="V1qCbwQH9o08SnHCUsVQ-107" value="" style="html=1;points=[[0,0,0,0,5],[0,1,0,0,-5],[1,0,0,0,5],[1,1,0,0,-5]];perimeter=orthogonalPerimeter;outlineConnect=0;targetShapes=umlLifeline;portConstraint=eastwest;newEdgeStyle={&quot;curved&quot;:0,&quot;rounded&quot;:0};" vertex="1" parent="V1qCbwQH9o08SnHCUsVQ-68">
          <mxGeometry x="246.39999999999998" y="705" width="10" height="30" as="geometry" />
        </mxCell>
        <mxCell id="V1qCbwQH9o08SnHCUsVQ-108" value="Vol enregistrÃ©&amp;nbsp;" style="html=1;align=left;spacingLeft=2;endArrow=block;rounded=0;edgeStyle=orthogonalEdgeStyle;curved=0;rounded=0;" edge="1" parent="V1qCbwQH9o08SnHCUsVQ-68" target="V1qCbwQH9o08SnHCUsVQ-107">
          <mxGeometry relative="1" as="geometry">
            <mxPoint x="251.39999999999998" y="685" as="sourcePoint" />
            <Array as="points">
              <mxPoint x="281.4" y="715" />
            </Array>
          </mxGeometry>
        </mxCell>
        <mxCell id="V1qCbwQH9o08SnHCUsVQ-109" value="Envoi du formulaire corrigÃ©" style="html=1;verticalAlign=bottom;endArrow=block;curved=0;rounded=0;" edge="1" parent="V1qCbwQH9o08SnHCUsVQ-68">
          <mxGeometry width="80" relative="1" as="geometry">
            <mxPoint x="52.39999999999998" y="595" as="sourcePoint" />
            <mxPoint x="244.64999999999998" y="595" as="targetPoint" />
          </mxGeometry>
        </mxCell>
        <mxCell id="V1qCbwQH9o08SnHCUsVQ-110" value="" style="html=1;verticalAlign=bottom;endArrow=open;dashed=1;endSize=8;curved=0;rounded=0;" edge="1" parent="V1qCbwQH9o08SnHCUsVQ-68">
          <mxGeometry relative="1" as="geometry">
            <mxPoint x="243.39999999999998" y="654" as="sourcePoint" />
            <mxPoint x="52.89999999999998" y="654" as="targetPoint" />
          </mxGeometry>
        </mxCell>
        <mxCell id="V1qCbwQH9o08SnHCUsVQ-111" value="(tant que les donnÃ©es sont non validÃ©es)" style="text;html=1;align=center;verticalAlign=middle;resizable=0;points=[];autosize=1;strokeColor=none;fillColor=none;" vertex="1" parent="V1qCbwQH9o08SnHCUsVQ-68">
          <mxGeometry x="57.39999999999998" y="493" width="240" height="30" as="geometry" />
        </mxCell>
        <mxCell id="V1qCbwQH9o08SnHCUsVQ-112" value="confirmation de l&#39;ajout de vol" style="text;html=1;align=center;verticalAlign=middle;resizable=0;points=[];autosize=1;strokeColor=none;fillColor=none;" vertex="1" parent="V1qCbwQH9o08SnHCUsVQ-68">
          <mxGeometry x="61.39999999999998" y="629" width="180" height="30" as="geometry" />
        </mxCell>
        <mxCell id="V1qCbwQH9o08SnHCUsVQ-71" value="REF" style="shape=umlFrame;whiteSpace=wrap;html=1;pointerEvents=0;" vertex="1" parent="V1qCbwQH9o08SnHCUsVQ-65">
          <mxGeometry x="30" y="122" width="300" height="30" as="geometry" />
        </mxCell>
        <mxCell id="V1qCbwQH9o08SnHCUsVQ-72" value="Connexion / Inscription" style="text;html=1;align=center;verticalAlign=middle;resizable=0;points=[];autosize=1;strokeColor=none;fillColor=none;" vertex="1" parent="V1qCbwQH9o08SnHCUsVQ-65">
          <mxGeometry x="105" y="122" width="150" height="30" as="geometry" />
        </mxCell>
        <mxCell id="V1qCbwQH9o08SnHCUsVQ-74" value="Envoi formulaire ajout vol" style="html=1;verticalAlign=bottom;endArrow=block;curved=0;rounded=0;entryX=1;entryY=0;entryDx=0;entryDy=5;" edge="1" parent="V1qCbwQH9o08SnHCUsVQ-65" source="V1qCbwQH9o08SnHCUsVQ-70" target="V1qCbwQH9o08SnHCUsVQ-73">
          <mxGeometry relative="1" as="geometry">
            <mxPoint x="355" y="175" as="sourcePoint" />
          </mxGeometry>
        </mxCell>
        <mxCell id="dzN_O0dOmK8x91sWcJcT-205" value="Alt" style="shape=umlFrame;whiteSpace=wrap;html=1;pointerEvents=0;" vertex="1" parent="1">
          <mxGeometry x="940" y="1600" width="652" height="190" as="geometry" />
        </mxCell>
        <mxCell id="dzN_O0dOmK8x91sWcJcT-206" value="If Valide" style="text;html=1;align=center;verticalAlign=middle;resizable=0;points=[];autosize=1;strokeColor=none;fillColor=none;" vertex="1" parent="1">
          <mxGeometry x="995" y="1598" width="70" height="30" as="geometry" />
        </mxCell>
        <mxCell id="dzN_O0dOmK8x91sWcJcT-207" value="" style="endArrow=classic;html=1;rounded=0;" edge="1" parent="1">
          <mxGeometry width="50" height="50" relative="1" as="geometry">
            <mxPoint x="1260" y="1640" as="sourcePoint" />
            <mxPoint x="950" y="1640" as="targetPoint" />
          </mxGeometry>
        </mxCell>
        <mxCell id="dzN_O0dOmK8x91sWcJcT-208" value="Compte mis Ã  jour" style="edgeLabel;html=1;align=center;verticalAlign=middle;resizable=0;points=[];" connectable="0" vertex="1" parent="dzN_O0dOmK8x91sWcJcT-207">
          <mxGeometry x="-0.0387" y="-2" relative="1" as="geometry">
            <mxPoint as="offset" />
          </mxGeometry>
        </mxCell>
        <mxCell id="dzN_O0dOmK8x91sWcJcT-209" value="" style="endArrow=classic;html=1;rounded=0;" edge="1" parent="1">
          <mxGeometry width="50" height="50" relative="1" as="geometry">
            <mxPoint x="1260" y="1710" as="sourcePoint" />
            <mxPoint x="950" y="1710" as="targetPoint" />
          </mxGeometry>
        </mxCell>
        <mxCell id="dzN_O0dOmK8x91sWcJcT-210" value="Affiche Erreur" style="edgeLabel;html=1;align=center;verticalAlign=middle;resizable=0;points=[];" connectable="0" vertex="1" parent="dzN_O0dOmK8x91sWcJcT-209">
          <mxGeometry x="0.0968" y="-1" relative="1" as="geometry">
            <mxPoint as="offset" />
          </mxGeometry>
        </mxCell>
        <mxCell id="dzN_O0dOmK8x91sWcJcT-212" value="" style="endArrow=classic;html=1;rounded=0;" edge="1" parent="1">
          <mxGeometry width="50" height="50" relative="1" as="geometry">
            <mxPoint x="1259" y="1730" as="sourcePoint" />
            <mxPoint x="949" y="1730" as="targetPoint" />
          </mxGeometry>
        </mxCell>
        <mxCell id="dzN_O0dOmK8x91sWcJcT-213" value="Echec mise a jour modification" style="edgeLabel;html=1;align=center;verticalAlign=middle;resizable=0;points=[];" connectable="0" vertex="1" parent="dzN_O0dOmK8x91sWcJcT-212">
          <mxGeometry x="0.0968" y="-1" relative="1" as="geometry">
            <mxPoint as="offset" />
          </mxGeometry>
        </mxCell>
        <mxCell id="dzN_O0dOmK8x91sWcJcT-214" value="Else if Erreur" style="text;html=1;align=center;verticalAlign=middle;resizable=0;points=[];autosize=1;strokeColor=none;fillColor=none;" vertex="1" parent="1">
          <mxGeometry x="1003" y="1660" width="90" height="30" as="geometry" />
        </mxCell>
        <mxCell id="dzN_O0dOmK8x91sWcJcT-215" value="Loop" style="shape=umlFrame;whiteSpace=wrap;html=1;pointerEvents=0;" vertex="1" parent="1">
          <mxGeometry x="920" y="1360" width="770" height="440" as="geometry" />
        </mxCell>
        <mxCell id="dzN_O0dOmK8x91sWcJcT-216" value="Tant que non valide&amp;nbsp;" style="text;html=1;align=center;verticalAlign=middle;resizable=0;points=[];autosize=1;strokeColor=none;fillColor=none;" vertex="1" parent="1">
          <mxGeometry x="975" y="1360" width="130" height="30" as="geometry" />
        </mxCell>
        <mxCell id="V1qCbwQH9o08SnHCUsVQ-80" value="confirmation de la crÃ©ation du vol" style="text;html=1;align=center;verticalAlign=middle;resizable=0;points=[];autosize=1;strokeColor=none;fillColor=none;" vertex="1" parent="1">
          <mxGeometry x="319" y="2234" width="200" height="30" as="geometry" />
        </mxCell>
        <mxCell id="dzN_O0dOmK8x91sWcJcT-221" value="OPT" style="shape=umlFrame;whiteSpace=wrap;html=1;pointerEvents=0;" vertex="1" parent="1">
          <mxGeometry x="930" y="1420" width="340" height="80" as="geometry" />
        </mxCell>
        <mxCell id="dzN_O0dOmK8x91sWcJcT-223" value="" style="endArrow=classic;html=1;rounded=0;exitX=-0.007;exitY=0.625;exitDx=0;exitDy=0;exitPerimeter=0;" edge="1" parent="1">
          <mxGeometry width="50" height="50" relative="1" as="geometry">
            <mxPoint x="946.8760000000001" y="1459.5" as="sourcePoint" />
            <mxPoint x="1261.13" y="1459.5" as="targetPoint" />
            <Array as="points">
              <mxPoint x="1041.13" y="1459.5" />
            </Array>
          </mxGeometry>
        </mxCell>
        <mxCell id="dzN_O0dOmK8x91sWcJcT-224" value="Quitter les modification" style="edgeLabel;html=1;align=center;verticalAlign=middle;resizable=0;points=[];" connectable="0" vertex="1" parent="dzN_O0dOmK8x91sWcJcT-223">
          <mxGeometry x="-0.0129" y="-2" relative="1" as="geometry">
            <mxPoint x="1" y="-1" as="offset" />
          </mxGeometry>
        </mxCell>
        <mxCell id="dzN_O0dOmK8x91sWcJcT-225" value="" style="endArrow=none;html=1;rounded=0;exitX=-0.007;exitY=0.625;exitDx=0;exitDy=0;exitPerimeter=0;startArrow=classic;startFill=1;endFill=0;" edge="1" parent="1">
          <mxGeometry width="50" height="50" relative="1" as="geometry">
            <mxPoint x="949.9960000000001" y="1480" as="sourcePoint" />
            <mxPoint x="1264.25" y="1480" as="targetPoint" />
            <Array as="points">
              <mxPoint x="1044.25" y="1480" />
            </Array>
          </mxGeometry>
        </mxCell>
        <mxCell id="dzN_O0dOmK8x91sWcJcT-226" value="Retour acceuil" style="edgeLabel;html=1;align=center;verticalAlign=middle;resizable=0;points=[];" connectable="0" vertex="1" parent="dzN_O0dOmK8x91sWcJcT-225">
          <mxGeometry x="-0.0129" y="-2" relative="1" as="geometry">
            <mxPoint as="offset" />
          </mxGeometry>
        </mxCell>
      </root>
    </mxGraphModel>
  </diagram>
</mxfile>
